<?xml version="1.0" encoding="UTF-8"?>
<svg version="1.1" xmlns="http://www.w3.org/2000/svg" width="940" height="233">
<path d="M0 0 C7.04045139 5.78881558 10.95725477 11.65809209 13.8125 20.3125 C14.51375 20.003125 15.215 19.69375 15.9375 19.375 C21.16155464 17.44437111 26.22734129 17.18481234 31.76074219 17.16723633 C32.42830536 17.16387772 33.09586853 17.1605191 33.78366089 17.15705872 C35.9755849 17.14761389 38.16743195 17.1456087 40.359375 17.14453125 C41.89626089 17.14131356 43.43314648 17.1379491 44.97003174 17.13444519 C48.18771066 17.12846963 51.4053628 17.12660361 54.62304688 17.12719727 C58.7225894 17.12729865 62.82195783 17.11366351 66.9214592 17.09642506 C70.09585338 17.08524075 73.27020637 17.08328004 76.44461823 17.08380699 C77.95471037 17.08263589 79.46480389 17.07826366 80.9748764 17.07047462 C104.80468633 16.95908831 104.80468633 16.95908831 112.8125 24.3125 C118.21749567 31.21275524 121.8125 39.49634868 121.8125 48.3125 C139.19339708 43.30083029 152.91558731 37.35011622 162.14453125 20.6953125 C164.13179452 17.85636497 165.68472719 16.79081709 168.8125 15.3125 C171.62402344 15.39916992 171.62402344 15.39916992 174.671875 16.04296875 C176.34636719 16.38231445 176.34636719 16.38231445 178.0546875 16.72851562 C179.79105469 17.11040039 179.79105469 17.11040039 181.5625 17.5 C182.70460938 17.73525391 183.84671875 17.97050781 185.0234375 18.21289062 C187.25977511 18.67686642 189.49364014 19.15295215 191.72460938 19.64208984 C193.65841977 20.0619383 195.59688715 20.46143249 197.54101562 20.83056641 C204.35168365 22.15823307 204.35168365 22.15823307 206.8125 25.3125 C206.71130104 30.41581892 204.45810191 34.06531585 201.6875 38.1875 C201.28007568 38.80318848 200.87265137 39.41887695 200.45288086 40.05322266 C191.17416215 53.85402121 179.74722643 63.00092452 163.8125 68.3125 C157.41516488 68.97688631 152.50937341 67.8773615 146.71484375 65.25 C145.9951088 64.93925537 145.27537384 64.62851074 144.53382874 64.30834961 C142.26556652 63.32490358 140.00799186 62.31926948 137.75 61.3125 C136.201826 60.63652073 134.65300234 59.96202729 133.10351562 59.2890625 C129.3321231 57.64727234 125.570134 55.98552591 121.8125 54.3125 C121.8125 55.6325 121.8125 56.9525 121.8125 58.3125 C122.65925293 58.08868652 123.50600586 57.86487305 124.37841797 57.63427734 C128.69978018 57.22936085 130.85795752 58.3009333 134.7578125 60.1640625 C136.09584939 60.77454507 137.43440872 61.38388362 138.7734375 61.9921875 C140.85351292 62.95741291 142.92721519 63.93253357 144.9921875 64.9296875 C153.12956574 68.8268993 159.33777574 71.50840539 168.34619141 68.36572266 C169.16007324 68.01815918 169.97395508 67.6705957 170.8125 67.3125 C171.87726563 66.88710937 172.94203125 66.46171875 174.0390625 66.0234375 C182.01281548 61.58203112 189.14319158 56.10884593 194.5625 48.6875 C196.8125 46.3125 196.8125 46.3125 199.5625 46.1875 C203.77179035 47.64456204 207.79504671 49.39305009 211.8125 51.3125 C211.73 50.405 211.6475 49.4975 211.5625 48.5625 C211.57985531 40.00633347 215.54963754 30.95525933 220.8125 24.3125 C228.79757292 16.53217254 239.87468029 17.16279778 250.29638672 17.16723633 C252.00261703 17.16219841 252.00261703 17.16219841 253.74331665 17.15705872 C257.49295146 17.1475818 261.24254147 17.14560731 264.9921875 17.14453125 C267.60621153 17.14131666 270.22023538 17.13795244 272.83425903 17.13444519 C278.30991913 17.12806191 283.78556715 17.12656153 289.26123047 17.12719727 C295.57269486 17.1277978 301.88407371 17.11724617 308.19551647 17.1014536 C314.28825153 17.08675662 320.38094581 17.08321042 326.47369766 17.08380699 C329.05639114 17.08262908 331.63908529 17.0782179 334.22176743 17.07047462 C337.83785806 17.0606471 341.45372986 17.06356373 345.06982422 17.06958008 C346.65987274 17.06115082 346.65987274 17.06115082 348.28204346 17.05255127 C363.17589521 17.11532934 363.17589521 17.11532934 368.8125 21.8125 C371.38053367 25.02254208 371.93935401 26.32121858 371.6640625 30.3125 C371.03412569 42.93517885 371.03412569 42.93517885 377.0859375 53.79296875 C378.67939352 55.53272206 378.67939352 55.53272206 380.8125 55.3125 C384.22657016 49.9353395 386.69851737 45.89434335 385.8125 39.3125 C385.461875 38.52875 385.11125 37.745 384.75 36.9375 C383.32466451 32.94656062 383.66485245 29.36605 384.8125 25.3125 C388.4949904 20.63474192 391.61329346 18.63786857 397.4296875 17.77734375 C408.19005783 16.50540937 424.48680616 14.75792858 433.4375 21.75 C437.02018509 25.61552865 437.18436424 28.99601201 437.0703125 34.046875 C436.63940468 37.8336407 435.38989432 39.49534807 432.8125 42.3125 C430.146968 44.29605502 427.44908715 46.17996019 424.6640625 47.9921875 C417.70036683 53.65853713 413.41445037 61.95646523 408.79858398 69.5300293 C407.75236695 71.24611755 406.69994053 72.95827004 405.64648438 74.66992188 C404.29541929 76.87550675 402.95504516 79.08768315 401.62646484 81.30688477 C400.52463002 83.13254945 399.39619666 84.94295877 398.22119141 86.72241211 C394.4092444 92.76149559 394.11158721 97.95435374 394.3125 105 C394.30863281 106.50916992 394.30863281 106.50916992 394.3046875 108.04882812 C394.4042234 115.59862619 395.94427933 120.36648672 400.9375 126.125 C404.17263417 130.35245713 405.2136403 134.00216651 404.8125 139.3125 C403.57378282 143.75730871 402.49804827 145.74617752 398.9375 148.6875 C393.18006671 151.68136531 387.55315258 151.48527279 381.19921875 151.515625 C380.27083694 151.52132507 379.34245514 151.52702515 378.38594055 151.53289795 C376.42502982 151.54232476 374.46410341 151.54887269 372.50317383 151.55273438 C369.52071163 151.56243265 366.5389411 151.59347515 363.55664062 151.625 C361.6458374 151.63153167 359.73502927 151.6367815 357.82421875 151.640625 C356.9406218 151.6529718 356.05702484 151.6653186 355.14665222 151.67803955 C348.43931954 151.65419382 342.72337436 150.70090973 337.375 146.3125 C334.10260744 142.12383753 334.33269064 137.38975543 334.8125 132.3125 C336.19148552 128.61101256 337.80493529 126.32135625 340.375 123.3125 C344.94258808 117.69085313 345.20017891 112.02638191 345.25 105.0625 C345.28287109 104.26714844 345.31574219 103.47179687 345.34960938 102.65234375 C345.4564807 90.62446237 337.1952927 81.05059725 330.68286133 71.53320312 C329.24209409 69.42593681 327.81285691 67.31118427 326.38476562 65.1953125 C325.46421017 63.8406913 324.54300907 62.48650858 323.62109375 61.1328125 C323.1980748 60.50674103 322.77505585 59.88066956 322.33921814 59.23562622 C320.07596825 55.94119013 317.74724711 53.03012388 314.8125 50.3125 C314.53277344 50.80202148 314.25304687 51.29154297 313.96484375 51.79589844 C313.56394531 52.4974707 313.16304687 53.19904297 312.75 53.921875 C312.06151978 55.12674561 312.06151978 55.12674561 311.35913086 56.35595703 C310.3079311 58.19551513 309.25665894 60.03503187 308.20532227 61.87451172 C305.41901187 66.74985523 302.63342257 71.62560647 299.85031128 76.5027771 C298.49247681 78.88213482 297.13419817 81.26123884 295.77587891 83.64031982 C295.09192955 84.83849264 294.40817304 86.03677556 293.72460938 87.23516846 C290.29076273 93.25486412 286.84798496 99.26861877 283.34765625 105.25 C282.83017822 106.1354248 282.3127002 107.02084961 281.77954102 107.93310547 C280.8268755 109.55940649 279.87053871 111.18356451 278.90991211 112.80517578 C276.6241883 116.32204635 276.6241883 116.32204635 275.8125 120.3125 C282.40194757 120.86162063 287.47258675 120.42748692 292.8125 116.3125 C295.32093498 113.84023568 297.67098667 111.23233489 299.95654297 108.55371094 C303.14160985 104.843021 305.31158212 102.62562305 310.21484375 102.01171875 C319.1362774 101.97047946 319.1362774 101.97047946 322.8125 105.3125 C326.84491095 110.73539748 326.50161117 116.85782538 325.8125 123.3125 C323.90455592 132.20598128 320.91268201 139.97802187 314.625 146.625 C305.10630978 152.33621413 294.52446072 151.75508661 283.80078125 151.7109375 C282.06064228 151.71296214 280.32050413 151.71587682 278.58036804 151.71963501 C274.95022426 151.7240365 271.32030326 151.71769555 267.69018555 151.70361328 C263.05003128 151.68648417 258.41039627 151.69639982 253.77026081 151.71433067 C250.18334572 151.72519483 246.59655288 151.72171078 243.00963402 151.7139473 C241.2989006 151.71195455 239.58815588 151.71437184 237.87743568 151.72138596 C235.48480605 151.72904839 233.09300754 151.71733187 230.70043945 151.70068359 C230.00260849 151.70675629 229.30477753 151.71282898 228.58580017 151.71908569 C222.64531512 151.64293144 218.2776974 150.06408763 213.4375 146.625 C211.13231371 143.34454258 210.61991964 140.23543335 210.8125 136.3125 C212.03638923 131.32351643 214.51125519 126.87620459 216.8125 122.3125 C215.14960937 123.10527344 215.14960937 123.10527344 213.453125 123.9140625 C211.9899642 124.58936749 210.5264012 125.26380152 209.0625 125.9375 C208.33289063 126.288125 207.60328125 126.63875 206.8515625 127 C201.40165479 129.47723078 201.40165479 129.47723078 198.4375 128.6484375 C196.39928209 126.9727872 194.55214163 125.30066186 192.8125 123.3125 C192.8125 122.6525 192.8125 121.9925 192.8125 121.3125 C191.92884766 120.90257812 191.92884766 120.90257812 191.02734375 120.484375 C188.88137252 119.34894049 187.2389215 118.10677349 185.375 116.5625 C177.60967192 110.6770465 167.81611119 105.37773355 157.8125 106.3125 C152.86035304 108.00325439 148.26928765 110.30575132 143.625 112.6875 C141.77090746 113.61950633 139.91380021 114.54427067 138.0509491 115.45864868 C136.36651281 116.28817732 134.69229223 117.13835711 133.01879883 117.98974609 C129.58385011 119.40682918 126.49713591 119.93889425 122.8125 120.3125 C122.8125 121.3025 122.8125 122.2925 122.8125 123.3125 C124.34003906 122.57761353 124.34003906 122.57761353 125.8984375 121.82788086 C129.6986373 120.00600669 133.51065168 118.21012482 137.32666016 116.42163086 C138.97287251 115.64573486 140.61585088 114.86293678 142.25537109 114.07299805 C144.62029288 112.93504995 146.99594813 111.82288866 149.375 110.71484375 C150.09929199 110.359702 150.82358398 110.00456024 151.56982422 109.63865662 C158.85362906 106.3052577 164.60520035 107.55903551 172.0625 110.3125 C187.76111441 116.61379998 199.22750079 129.13448127 207.375 143.625 C208.8125 147.3125 208.8125 147.3125 208.3503418 149.90087891 C206.51787277 152.77453012 204.9781915 153.29537601 201.73408508 154.12435913 C201.04453232 154.27667999 200.35497955 154.42900085 199.64453125 154.5859375 C198.93149338 154.7588028 198.21845551 154.93166809 197.48381042 155.10977173 C195.97394916 155.47090683 194.46155907 155.82160574 192.94702148 156.16259766 C190.64464774 156.68305855 188.35312652 157.23892042 186.06054688 157.80078125 C184.58904699 158.147982 183.11705409 158.49310117 181.64453125 158.8359375 C180.96509964 159.00040375 180.28566803 159.16487 179.58564758 159.33432007 C175.05059091 160.334037 171.33541254 160.38205068 166.8125 159.3125 C164.73046875 156.90625 164.73046875 156.90625 163 153.8125 C156.04576038 142.59512497 146.67667625 135.17777725 133.76855469 131.7734375 C129.47832181 130.77745529 125.16354677 129.99855717 120.8125 129.3125 C120.77125 130.611875 120.73 131.91125 120.6875 133.25 C120.04547873 138.97393611 117.61496202 143.05020537 113.8125 147.3125 C107.88578093 151.18301041 101.95890981 151.46283593 95.04394531 151.47363281 C94.27738617 151.47859772 93.51082703 151.48356262 92.72103882 151.48867798 C90.19422494 151.50323856 87.66747387 151.5100918 85.140625 151.515625 C83.37571207 151.52138198 81.61079915 151.52713964 79.84588623 151.53289795 C76.14725454 151.54339094 72.44864447 151.54924456 68.75 151.55273438 C64.02811864 151.55821196 59.30652665 151.58223144 54.58473587 151.61070633 C50.93857 151.62940062 47.29247286 151.63454194 43.64626312 151.63607025 C41.90646535 151.63908258 40.16666839 151.64706273 38.42691803 151.66025543 C21.27347563 151.78103571 21.27347563 151.78103571 13.8125 148.3125 C10.31385053 144.81385053 8.98397987 142.06159463 8.5 137.125 C9.10611698 129.73037287 13.03879355 124.73130192 17.8125 119.3125 C19.22162096 116.49425808 18.92433553 114.13998718 18.91015625 110.9921875 C18.90693359 109.73535156 18.90371094 108.47851562 18.90039062 107.18359375 C18.89201172 105.86488281 18.88363281 104.54617187 18.875 103.1875 C18.86998489 101.84765789 18.86542201 100.507814 18.86132812 99.16796875 C18.84951086 95.88276794 18.83303617 92.59765603 18.8125 89.3125 C18.61062576 89.87102661 18.40875153 90.42955322 18.20075989 91.00500488 C16.08624929 96.84953132 13.95879665 102.68923013 11.82397461 108.52636719 C11.03032088 110.70160222 10.23990718 112.87802239 9.45288086 115.05566406 C8.3170644 118.19658091 7.16942854 121.33296502 6.01953125 124.46875 C5.67348343 125.43365356 5.32743561 126.39855713 4.97090149 127.3927002 C2.16138929 134.99836103 -1.00620189 142.94127507 -8.1875 147.3125 C-17.23924974 151.34674629 -25.29226479 153.25315194 -35.046875 151.17578125 C-40.42221405 149.00798941 -42.92709423 145.56025665 -45.3125 140.4375 C-45.78945313 139.42945313 -46.26640625 138.42140625 -46.7578125 137.3828125 C-47.22960937 136.36960938 -47.70140625 135.35640625 -48.1875 134.3125 C-49.18194575 132.3097325 -50.18035507 130.30891155 -51.1875 128.3125 C-51.70957031 128.95316406 -52.23164063 129.59382812 -52.76953125 130.25390625 C-64.50401862 144.04347022 -80.35973263 151.42936356 -98.25 153.0625 C-118.24206589 154.13244208 -135.91224212 148.61612734 -151.4375 136 C-164.08380298 124.41402099 -170.40573201 107.67772578 -171.390625 90.83984375 C-171.66184927 70.06858473 -165.16648711 51.18016165 -150.625 36.125 C-135.94490438 21.55450954 -117.41695617 16.14443707 -97.23095703 16.12207031 C-90.82536916 16.17889906 -90.82536916 16.17889906 -87.70703125 16.83203125 C-82.7332972 17.78051077 -77.53568987 17.265773 -72.4921875 17.09765625 C-67.55603011 17.01661486 -64.11867591 16.97389105 -60.1875 20.3125 C-52.52177906 28.29878745 -49.1875 43.4112373 -49.1875 54.3125 C-47.8675 54.3125 -46.5475 54.3125 -45.1875 54.3125 C-44.8575 52.9925 -44.5275 51.6725 -44.1875 50.3125 C-42.8675 49.9825 -41.5475 49.6525 -40.1875 49.3125 C-40.78498047 48.60287109 -40.78498047 48.60287109 -41.39453125 47.87890625 C-47.29240186 40.51733053 -49.86796952 33.63785166 -49.5234375 24.13671875 C-48.33813468 14.17190547 -43.75079259 6.82298226 -36.1875 0.3125 C-24.71250267 -6.71756319 -11.70871977 -6.198734 0 0 Z M167.8125 20.3125 C166.13721401 22.22929627 166.13721401 22.22929627 164.9375 24.8125 C156.96525081 39.12218273 144.21373266 46.57365918 128.8125 51.3125 C133.65443489 54.5404566 138.95160101 56.74498624 144.25 59.125 C145.37599609 59.66576172 146.50199219 60.20652344 147.66210938 60.76367188 C154.90645545 63.97551249 159.54481526 64.81759713 167.16381836 62.4074707 C182.40148024 56.10818841 195.046397 43.30822044 201.8125 28.3125 C201.8125 27.6525 201.8125 26.9925 201.8125 26.3125 C197.77534968 25.45156691 193.73685337 24.59728715 189.69702148 23.74902344 C188.32424403 23.45981334 186.95184098 23.16881989 185.57983398 22.87597656 C183.60236926 22.45423218 181.6236261 22.03901837 179.64453125 21.625 C178.45577393 21.37363281 177.2670166 21.12226562 176.04223633 20.86328125 C173.1857928 20.37615928 170.69502532 20.04529324 167.8125 20.3125 Z M10.8125 40.3125 C9.77777034 41.57651634 8.78437185 42.87453851 7.8125 44.1875 C7.27625 44.90679687 6.74 45.62609375 6.1875 46.3671875 C4.77494949 48.26171334 4.77494949 48.26171334 3.8125 50.3125 C5.7925 50.3125 7.7725 50.3125 9.8125 50.3125 C10.1425 51.6325 10.4725 52.9525 10.8125 54.3125 C13.7825 54.6425 16.7525 54.9725 19.8125 55.3125 C19.64899632 48.93585647 15.92427029 44.84754076 11.8125 40.3125 C11.4825 40.3125 11.1525 40.3125 10.8125 40.3125 Z M-116.5 51.4375 C-121.5975862 58.22221081 -122.72741435 65.69143276 -122.625 74 C-122.61742676 74.86995605 -122.60985352 75.73991211 -122.60205078 76.63623047 C-122.28898756 89.03307702 -118.91218599 100.69873293 -110.5625 110.15234375 C-105.44954702 114.99307933 -99.66524648 116.93310947 -92.75 117.6875 C-83.27613293 116.69025084 -77.3958719 113.37251323 -70.1875 107.3125 C-67.0008518 104.99880888 -63.72622067 103.04036148 -60.1875 101.3125 C-62.84419494 92.79505592 -65.95379208 86.91799438 -72.1640625 80.51171875 C-75.95012505 76.39675115 -77.1875 72.69916593 -77.1875 67.125 C-77.56808427 62.30978158 -80.15884783 59.43200811 -83.3125 56 C-83.77398437 55.49637939 -84.23546875 54.99275879 -84.7109375 54.47387695 C-89.84769716 49.19158752 -95.44473952 45.71858871 -102.921875 45.22265625 C-108.54077533 45.44547471 -112.6456983 47.35535781 -116.5 51.4375 Z M68.8125 48.3125 C67.79017121 51.37948637 67.6465951 53.59914878 67.625 56.8125 C67.61082031 57.7715625 67.59664062 58.730625 67.58203125 59.71875 C67.62494889 62.54996139 67.62494889 62.54996139 69.8125 65.3125 C72.95414883 63.9632021 74.55613811 62.61899493 76.5625 59.875 C79.82251724 55.86267109 82.90725878 54.75024312 87.8125 53.3125 C87.30993888 51.29817734 87.30993888 51.29817734 85.8125 49.3125 C80.76466055 47.29336422 73.92065047 45.75842476 68.8125 48.3125 Z M238.14453125 58.1875 C237.13940857 59.37875651 236.14688611 60.58084991 235.171875 61.796875 C232.21530567 65.09327989 229.23950619 65.89246527 224.94140625 66.3515625 C220.25189212 66.26551637 216.64239476 63.86576317 212.8125 61.3125 C212.27625 61.61542969 211.74 61.91835937 211.1875 62.23046875 C198.55083048 68.98526742 184.05874066 72.89738161 169.8125 74.3125 C168.93239258 74.40942139 168.05228516 74.50634277 167.14550781 74.60620117 C157.98018828 75.15437719 151.07121203 71.90318899 143.0625 68 C141.1629695 67.10059192 139.26047522 66.20767864 137.35778809 65.31497192 C135.56898552 64.47429636 133.78346079 63.62665715 131.99804688 62.77880859 C128.32091892 61.08622502 124.63363091 59.64221515 120.8125 58.3125 C120.27625 59.26125 119.74 60.21 119.1875 61.1875 C116.41750655 64.83222822 115.25083333 65.47507862 110.8125 66.3125 C108.42091974 66.38798177 106.05892595 66.37727018 103.66796875 66.28515625 C101.79551616 66.0972803 101.79551616 66.0972803 100.8125 67.3125 C100.72482888 69.38512076 100.70554127 71.46070294 100.71484375 73.53515625 C100.71806641 74.79521484 100.72128906 76.05527344 100.72460938 77.35351562 C100.73296597 78.69401109 100.74143093 80.03450588 100.75 81.375 C100.7550134 82.71939942 100.75957658 84.0638006 100.76367188 85.40820312 C100.77550512 88.70967941 100.79199029 92.01106803 100.8125 95.3125 C103.82845784 95.98786834 106.12787079 96.29529796 109.25 96.125 C113.61635183 96.35480799 115.48950413 97.53045694 118.8125 100.3125 C120.1875 102.5625 120.1875 102.5625 120.8125 104.3125 C125.48603292 103.76745095 128.79441103 102.47019516 132.89868164 100.20068359 C152.81427081 89.68386626 169.60724873 87.31857684 191.92687988 87.88763428 C195.88389602 87.97257154 199.84103905 87.97419662 203.79882812 87.984375 C211.47232806 88.01561937 219.14086477 88.13352868 226.8125 88.3125 C226.55248397 90.32334628 226.21344523 92.32495024 225.8125 94.3125 C223.82226562 95.83569336 223.82226562 95.83569336 221.21875 96.90234375 C220.27 97.29357422 219.32125 97.68480469 218.34375 98.08789062 C217.3434375 98.47138672 216.343125 98.85488281 215.3125 99.25 C213.8584375 99.86584961 213.8584375 99.86584961 212.375 100.49414062 C206.01478078 103.02882476 201.47687419 103.76849121 194.8125 102.3125 C193.97605957 102.15628174 193.13961914 102.00006348 192.27783203 101.83911133 C188.65174347 101.15967656 185.03501394 100.44016199 181.42382812 99.68554688 C167.80022975 97.04216212 157.91492946 97.74133352 145.5625 104.25 C137.91861889 108.1936297 131.53647973 111.28433443 122.8125 111.3125 C122.8125 113.6225 122.8125 115.9325 122.8125 118.3125 C124.38737165 117.63693437 125.9617967 116.96031527 127.53442383 116.27954102 C128.95323967 115.66565421 130.3737144 115.05559007 131.7956543 114.44897461 C135.77125708 112.72985289 139.63042723 110.91155095 143.4375 108.84375 C161.21510875 99.34808694 177.74028362 100.96276886 196.75390625 106.4140625 C204.64411692 108.81577432 211.73399841 112.10005838 218.8125 116.3125 C219.4725 116.6425 220.1325 116.9725 220.8125 117.3125 C229.33809138 102.56693369 237.83416518 87.80532729 246.26757812 73.00683594 C246.89083984 71.9140332 247.51410156 70.82123047 248.15625 69.6953125 C248.75695312 68.63860352 249.35765625 67.58189453 249.9765625 66.49316406 C251.23988915 64.30451785 252.52787954 62.12998315 253.8359375 59.96777344 C254.47789062 58.90333008 255.11984375 57.83888672 255.78125 56.7421875 C256.36326172 55.79327637 256.94527344 54.84436523 257.54492188 53.86669922 C259.10886017 51.19056677 259.10886017 51.19056677 258.8125 47.3125 C250.07251525 46.51795593 243.62021396 52.03216581 238.14453125 58.1875 Z M-11.1875 79.3125 C-11.1875 80.9625 -11.1875 82.6125 -11.1875 84.3125 C-10.8575 84.3125 -10.5275 84.3125 -10.1875 84.3125 C-10.1875 82.6625 -10.1875 81.0125 -10.1875 79.3125 C-10.5175 79.3125 -10.8475 79.3125 -11.1875 79.3125 Z M69.8125 96.3125 C67.74314423 99.41653365 67.55732091 100.13150019 67.546875 103.65625 C67.54429687 104.49027344 67.54171875 105.32429688 67.5390625 106.18359375 C67.54679688 107.05113281 67.55453125 107.91867188 67.5625 108.8125 C67.55476562 109.68003906 67.54703125 110.54757813 67.5390625 111.44140625 C67.54164063 112.27542969 67.54421875 113.10945313 67.546875 113.96875 C67.54913086 114.72994141 67.55138672 115.49113281 67.55371094 116.27539062 C67.69838689 118.62386746 67.69838689 118.62386746 69.8125 121.3125 C74.71653247 122.12532306 80.29658967 122.45738055 84.8984375 120.36328125 C87.94872109 117.90911908 90.14740745 114.82769538 91.8125 111.3125 C91.8125 110.3225 91.8125 109.3325 91.8125 108.3125 C91.0390625 108.20035156 90.265625 108.08820313 89.46875 107.97265625 C81.8072231 106.52189682 78.05014732 104.41166639 73.3359375 98.17578125 C72.83320313 97.56089844 72.33046875 96.94601563 71.8125 96.3125 C71.1525 96.3125 70.4925 96.3125 69.8125 96.3125 Z M151.1015625 115.15625 C150.48856293 115.44479858 149.87556335 115.73334717 149.24398804 116.03063965 C147.30319107 116.94721402 145.37044695 117.87950268 143.4375 118.8125 C142.11638669 119.43985878 140.79477635 120.06617202 139.47265625 120.69140625 C136.24676569 122.21971794 133.0278959 123.76220851 129.8125 125.3125 C129.8125 125.6425 129.8125 125.9725 129.8125 126.3125 C130.62332031 126.53164062 131.43414062 126.75078125 132.26953125 126.9765625 C149.81364081 132.00083602 160.31839274 139.93507627 169.8125 155.3125 C177.60882411 154.81581455 184.8932445 153.22543993 192.4375 151.25 C194.08685547 150.82750977 194.08685547 150.82750977 195.76953125 150.39648438 C198.4522659 149.70830462 201.13310429 149.01354562 203.8125 148.3125 C198.07139899 133.38532604 185.38257955 121.78946073 171.171875 115.0625 C163.56536139 111.78304503 158.75710558 111.50406431 151.1015625 115.15625 Z " fill="#000000" transform="translate(339.1875,31.6875)"/>
<path d="M0 0 C3.58268509 3.86552865 3.74686424 7.24601201 3.6328125 12.296875 C3.20190468 16.0836407 1.95239432 17.74534807 -0.625 20.5625 C-3.290532 22.54605502 -5.98841285 24.42996019 -8.7734375 26.2421875 C-15.73713317 31.90853713 -20.02304963 40.20646523 -24.63891602 47.7800293 C-25.68513305 49.49611755 -26.73755947 51.20827004 -27.79101562 52.91992188 C-29.14208071 55.12550675 -30.48245484 57.33768315 -31.81103516 59.55688477 C-32.91286998 61.38254945 -34.04130334 63.19295877 -35.21630859 64.97241211 C-39.0282556 71.01149559 -39.32591279 76.20435374 -39.125 83.25 C-39.12757813 84.25611328 -39.13015625 85.26222656 -39.1328125 86.29882812 C-39.0332766 93.84862619 -37.49322067 98.61648672 -32.5 104.375 C-29.26486583 108.60245713 -28.2238597 112.25216651 -28.625 117.5625 C-29.86371718 122.00730871 -30.93945173 123.99617752 -34.5 126.9375 C-40.25743329 129.93136531 -45.88434742 129.73527279 -52.23828125 129.765625 C-53.16666306 129.77132507 -54.09504486 129.77702515 -55.05155945 129.78289795 C-57.01247018 129.79232476 -58.97339659 129.79887269 -60.93432617 129.80273438 C-63.91678837 129.81243265 -66.8985589 129.84347515 -69.88085938 129.875 C-71.7916626 129.88153167 -73.70247073 129.8867815 -75.61328125 129.890625 C-76.4968782 129.9029718 -77.38047516 129.9153186 -78.29084778 129.92803955 C-84.99818046 129.90419382 -90.71412564 128.95090973 -96.0625 124.5625 C-99.33489256 120.37383753 -99.10480936 115.63975543 -98.625 110.5625 C-97.24601448 106.86101256 -95.63256471 104.57135625 -93.0625 101.5625 C-88.49491192 95.94085313 -88.23732109 90.27638191 -88.1875 83.3125 C-88.13819336 82.11947266 -88.13819336 82.11947266 -88.08789062 80.90234375 C-87.9810193 68.87446237 -96.2422073 59.30059725 -102.75463867 49.78320312 C-104.19540591 47.67593681 -105.62464309 45.56118427 -107.05273438 43.4453125 C-107.97328983 42.0906913 -108.89449093 40.73650858 -109.81640625 39.3828125 C-110.2394252 38.75674103 -110.66244415 38.13066956 -111.09828186 37.48562622 C-113.36153175 34.19119013 -115.69025289 31.28012388 -118.625 28.5625 C-118.90472656 29.05202148 -119.18445313 29.54154297 -119.47265625 30.04589844 C-119.87355469 30.7474707 -120.27445313 31.44904297 -120.6875 32.171875 C-121.37598022 33.37674561 -121.37598022 33.37674561 -122.07836914 34.60595703 C-123.1295689 36.44551513 -124.18084106 38.28503187 -125.23217773 40.12451172 C-128.01848813 44.99985523 -130.80407743 49.87560647 -133.58718872 54.7527771 C-134.94502319 57.13213482 -136.30330183 59.51123884 -137.66162109 61.89031982 C-138.34557045 63.08849264 -139.02932696 64.28677556 -139.71289062 65.48516846 C-143.14673727 71.50486412 -146.58951504 77.51861877 -150.08984375 83.5 C-150.60732178 84.3854248 -151.1247998 85.27084961 -151.65795898 86.18310547 C-152.6106245 87.80940649 -153.56696129 89.43356451 -154.52758789 91.05517578 C-156.8133117 94.57204635 -156.8133117 94.57204635 -157.625 98.5625 C-151.03555243 99.11162063 -145.96491325 98.67748692 -140.625 94.5625 C-138.11656502 92.09023568 -135.76651333 89.48233489 -133.48095703 86.80371094 C-129.84265959 82.56499502 -127.69442154 80.74726978 -122.125 80.25 C-118.36811856 80.58543584 -117.27929915 81.01094791 -114.625 83.5625 C-112.31491283 91.52831782 -116.47671811 101.3131667 -119.625 108.5625 C-122.2325726 112.52316174 -124.11556081 114.18784157 -128.625 115.5625 C-131.43872454 115.74982428 -134.15149091 115.83600393 -136.96362305 115.82128906 C-138.20347961 115.82654602 -138.20347961 115.82654602 -139.46838379 115.83190918 C-142.19124836 115.84068798 -144.9138517 115.8348926 -147.63671875 115.828125 C-149.53050283 115.82947237 -151.42428657 115.8314135 -153.31806946 115.83392334 C-157.28149722 115.83686905 -161.2448347 115.83259327 -165.20825195 115.82324219 C-170.29621624 115.8118246 -175.38397005 115.81842519 -180.47192669 115.83038712 C-184.37945656 115.8376007 -188.28693619 115.83532051 -192.19446754 115.83013153 C-194.0712162 115.82879485 -195.94796938 115.83044338 -197.82471275 115.83509064 C-200.44145247 115.8401502 -203.05784668 115.83245487 -205.67456055 115.82128906 C-206.45432755 115.82533752 -207.23409454 115.82938599 -208.03749084 115.83355713 C-213.39646659 115.79103341 -213.39646659 115.79103341 -215.625 113.5625 C-215.65348039 106.48986948 -211.90351752 101.08592272 -208.4375 95.125 C-207.809646 94.02534912 -207.18179199 92.92569824 -206.53491211 91.79272461 C-204.578061 88.37488822 -202.60426876 84.9673959 -200.625 81.5625 C-200.03396484 80.54285156 -199.44292969 79.52320313 -198.83398438 78.47265625 C-195.96910427 73.53455034 -193.09086364 68.60445693 -190.203125 63.6796875 C-186.41819428 57.22021181 -182.67499007 50.73701164 -178.9375 44.25 C-177.69271213 42.08984156 -176.44792053 39.92968527 -175.203125 37.76953125 C-174.60564453 36.7326416 -174.00816406 35.69575195 -173.39257812 34.62744141 C-169.14735273 27.26631439 -164.88571474 19.91466889 -160.625 12.5625 C-163.60473615 12.48065577 -166.58216832 12.42160236 -169.5625 12.375 C-170.39330078 12.34986328 -171.22410156 12.32472656 -172.08007812 12.29882812 C-181.70902909 12.18642792 -189.62467359 14.83996432 -196.625 21.5625 C-198.00462959 23.31356832 -199.35813636 25.08547203 -200.6875 26.875 C-204.7573408 32.19463443 -204.7573408 32.19463443 -208.4375 32.875 C-211.625 32.5625 -211.625 32.5625 -213.29296875 31.34375 C-216.07190533 27.62763539 -215.19379339 22.94958235 -214.625 18.5625 C-212.74808522 11.58365418 -210.74146516 4.84702423 -205.625 -0.4375 C-201.98505991 -2.22506888 -199.04100874 -2.69231363 -195.00817871 -2.71165466 C-193.33008369 -2.72661736 -193.33008369 -2.72661736 -191.61808777 -2.74188232 C-189.79136284 -2.74287933 -189.79136284 -2.74287933 -187.92773438 -2.74389648 C-186.63781082 -2.75222 -185.34788727 -2.76054352 -184.01887512 -2.76911926 C-180.48794759 -2.79101958 -176.95710662 -2.79985657 -173.42611885 -2.80494571 C-171.219102 -2.80859317 -169.01210772 -2.8148351 -166.80509949 -2.8219471 C-159.10296637 -2.84642158 -151.40090048 -2.85949012 -143.69873047 -2.86303711 C-136.52252549 -2.86667563 -129.34674734 -2.89659834 -122.17067289 -2.93844169 C-116.00492497 -2.97313198 -109.83931869 -2.98858529 -103.67347383 -2.98928314 C-99.9927643 -2.9900761 -96.31249027 -2.99882327 -92.63188171 -3.02728081 C-88.52836923 -3.05830131 -84.42587612 -3.04940813 -80.32226562 -3.03686523 C-79.10444901 -3.05169952 -77.88663239 -3.06653381 -76.63191223 -3.08181763 C-67.47267116 -3.00188096 -67.47267116 -3.00188096 -64.3939209 -0.02503967 C-62.13791048 3.27500413 -61.50390684 4.65474163 -61.7734375 8.5625 C-62.40337431 21.18517885 -62.40337431 21.18517885 -56.3515625 32.04296875 C-54.75810648 33.78272206 -54.75810648 33.78272206 -52.625 33.5625 C-49.21092984 28.1853395 -46.73898263 24.14434335 -47.625 17.5625 C-47.975625 16.77875 -48.32625 15.995 -48.6875 15.1875 C-50.11283549 11.19656062 -49.77264755 7.61605 -48.625 3.5625 C-44.9425096 -1.11525808 -41.82420654 -3.11213143 -36.0078125 -3.97265625 C-25.24744217 -5.24459063 -8.95069384 -6.99207142 0 0 Z " fill="#344DAA" transform="translate(772.625,53.4375)"/>
<path d="M0 0 C7.61598336 6.26203077 13.00288403 13.2743612 14.15625 23.30078125 C14.43841742 32.55352113 12.38650024 39.94043516 6.8125 47.3125 C5.8225 48.3025 5.8225 48.3025 4.8125 49.3125 C6.4625 49.6425 8.1125 49.9725 9.8125 50.3125 C10.1425 52.2925 10.4725 54.2725 10.8125 56.3125 C11.48796875 56.26609375 12.1634375 56.2196875 12.859375 56.171875 C20.095684 55.87907637 20.095684 55.87907637 23.5 57.9375 C24.8125 60.3125 24.8125 60.3125 25.125 63.0625 C23.67427494 66.65477157 22.51952535 67.55805723 19.5625 69.9375 C16.14367818 72.81120577 14.13749278 75.05187876 12.51953125 79.21484375 C12.10493652 80.27251953 11.6903418 81.33019531 11.26318359 82.41992188 C10.77701928 83.71647481 10.29372543 85.01410586 9.8125 86.3125 C9.37722992 87.48208252 9.37722992 87.48208252 8.9331665 88.67529297 C6.1488128 96.17940252 3.39610744 103.69543278 0.67553711 111.22290039 C-0.36528581 114.09842648 -1.41799272 116.96937016 -2.47265625 119.83984375 C-2.7863063 120.71696518 -3.09995636 121.59408661 -3.42311096 122.49778748 C-7.17400858 132.64095398 -7.17400858 132.64095398 -12.1875 135.421875 C-12.8475 135.63328125 -13.5075 135.8446875 -14.1875 136.0625 C-14.8475 136.28421875 -15.5075 136.5059375 -16.1875 136.734375 C-16.8475 136.92515625 -17.5075 137.1159375 -18.1875 137.3125 C-18.81785156 137.49554688 -19.44820312 137.67859375 -20.09765625 137.8671875 C-22.62886379 138.40654761 -25.03802052 138.59421086 -27.625 138.6875 C-28.55183594 138.73648438 -29.47867188 138.78546875 -30.43359375 138.8359375 C-34.18945619 138.12205726 -35.99335738 136.30403973 -38.1875 133.3125 C-39.94746122 129.79328465 -41.29602219 126.14615668 -42.65625 122.45703125 C-43.05904175 121.40021652 -43.4618335 120.34340179 -43.87683105 119.25456238 C-45.15979663 115.8827067 -46.42458727 112.50441183 -47.6875 109.125 C-48.95323219 105.76460419 -50.22287878 102.4057763 -51.49816895 99.04899597 C-52.28912376 96.96435463 -53.07424843 94.87748811 -53.85241699 92.78804016 C-58.18481749 80.25637716 -58.18481749 80.25637716 -66.4375 70.3125 C-70.13194444 67.42361111 -70.13194444 67.42361111 -71.1875 65.3125 C-71.42083333 58.77916667 -71.42083333 58.77916667 -70.1875 56.3125 C-80.94540567 40.91864809 -80.94540567 40.91864809 -97.33984375 32.8515625 C-105.20677333 31.64126564 -111.70027672 33.2760209 -118.30078125 37.7109375 C-124.96024176 43.3638957 -128.57216829 51.67725648 -129.36767578 60.25537109 C-130.44673283 77.13739272 -127.08502089 93.77499787 -116.9375 107.6875 C-108.18380809 116.04329683 -99.84842032 117.80404377 -88.171875 117.58984375 C-83.01301786 117.23074683 -79.5226692 116.03770307 -75.1875 113.3125 C-74.40761719 112.84199219 -73.62773437 112.37148437 -72.82421875 111.88671875 C-69.27357586 109.63778455 -66.38338196 107.52204814 -63.5 104.4375 C-61.1875 102.3125 -61.1875 102.3125 -58 101.8125 C-57.071875 101.9775 -56.14375 102.1425 -55.1875 102.3125 C-53.07751641 105.47747539 -52.85984598 106.63159298 -53.5234375 110.2890625 C-56.99131624 120.855893 -66.46823705 128.57400403 -75.8359375 133.734375 C-91.46615461 141.09405765 -109.80652077 141.64011014 -126.1875 136.3125 C-140.63425966 130.56804492 -152.23378072 121.33935044 -158.69140625 106.96484375 C-165.03674623 90.92975383 -166.11588306 71.40356717 -159.1875 55.3125 C-151.20657092 38.58563051 -138.3192418 27.0910842 -121.1875 20.3125 C-109.6010626 16.70048219 -98.2118259 16.17975182 -86.40234375 18.859375 C-82.26883895 19.7050303 -78.62468496 19.88737398 -74.6875 18.3125 C-71.33630645 16.97202258 -68.76912391 16.99271215 -65.1875 17.3125 C-59.86397485 19.6647553 -56.97518987 23.40855349 -54.7734375 28.73046875 C-49.1875 46.11895161 -49.1875 46.11895161 -49.1875 54.3125 C-47.8675 54.3125 -46.5475 54.3125 -45.1875 54.3125 C-44.8575 52.9925 -44.5275 51.6725 -44.1875 50.3125 C-42.8675 49.9825 -41.5475 49.6525 -40.1875 49.3125 C-40.58582031 48.83941406 -40.98414063 48.36632812 -41.39453125 47.87890625 C-47.29240186 40.51733053 -49.86796952 33.63785166 -49.5234375 24.13671875 C-48.33813468 14.17190547 -43.75079259 6.82298226 -36.1875 0.3125 C-24.71250267 -6.71756319 -11.70871977 -6.198734 0 0 Z M-11.1875 79.3125 C-11.1875 80.9625 -11.1875 82.6125 -11.1875 84.3125 C-10.8575 84.3125 -10.5275 84.3125 -10.1875 84.3125 C-10.1875 82.6625 -10.1875 81.0125 -10.1875 79.3125 C-10.5175 79.3125 -10.8475 79.3125 -11.1875 79.3125 Z " fill="#344DA9" transform="translate(339.1875,31.6875)"/>
<path d="M0 0 C0.7696257 -0.00525696 1.5392514 -0.01051392 2.3321991 -0.01593018 C4.87426102 -0.02912378 7.41569545 -0.02039198 9.95776367 -0.01025391 C11.72889831 -0.01227545 13.50003214 -0.01518756 15.27116394 -0.01895142 C18.98424195 -0.02337442 22.69710342 -0.01694683 26.41015625 -0.00292969 C31.15809624 0.01412477 35.90552606 0.00434472 40.65344715 -0.01364708 C44.31243186 -0.0245176 47.97129683 -0.02102297 51.63028526 -0.0132637 C53.38009388 -0.01126877 55.12991352 -0.01369602 56.87970924 -0.02070236 C59.33285669 -0.02836659 61.78519375 -0.01664223 64.23828125 0 C64.95488922 -0.00607269 65.67149719 -0.01214539 66.40982056 -0.0184021 C71.48574334 0.04502664 74.87963355 1.08905648 79.31323242 3.38818359 C85.71334351 10.33687564 87.76209321 21.17399156 87.74682617 30.36474609 C87.31323242 32.38818359 87.31323242 32.38818359 86.22338867 34.22412109 C84.31323242 35.38818359 84.31323242 35.38818359 80.92651367 35.43115234 C76.39411849 34.1228826 75.23407507 32.48638644 72.50073242 28.70068359 C68.11466151 23.12367087 64.34225758 18.37483022 57.31323242 16.38818359 C50.50900304 15.65843506 43.09044068 15.29401592 36.31323242 16.38818359 C33.11133529 19.59008072 34.01780694 23.29448506 33.9909668 27.65966797 C33.99418945 28.86945313 33.99741211 30.07923828 34.00073242 31.32568359 C33.98461914 32.53160156 33.96850586 33.73751953 33.9519043 34.97998047 C33.95125977 36.13433594 33.95061523 37.28869141 33.94995117 38.47802734 C33.94697021 39.53884521 33.94398926 40.59966309 33.94091797 41.69262695 C34.09552795 44.40177066 34.09552795 44.40177066 35.67602539 46.22827148 C39.26934059 48.7740276 44.1523909 48.05241432 48.31323242 47.38818359 C50.90445146 45.3783479 50.90445146 45.3783479 52.31323242 42.38818359 C53.39604492 40.77943359 53.39604492 40.77943359 54.50073242 39.13818359 C55.09885742 38.23068359 55.69698242 37.32318359 56.31323242 36.38818359 C57.31323242 35.38818359 57.31323242 35.38818359 60.18823242 35.07568359 C63.31323242 35.38818359 63.31323242 35.38818359 64.98364258 36.95678711 C66.79863774 40.27583537 66.70175534 42.82958629 66.71166992 46.60302734 C66.7145401 47.29578262 66.71741028 47.9885379 66.72036743 48.70228577 C66.72240401 50.16391825 66.71690251 51.62557824 66.7043457 53.0871582 C66.68830876 55.31507889 66.70419356 57.54117905 66.72338867 59.76904297 C66.72140569 61.19287507 66.71756087 62.61670605 66.71166992 64.04052734 C66.70828613 65.32950928 66.70490234 66.61849121 66.70141602 67.9465332 C66.28917332 71.60149253 65.59561982 73.5262969 63.31323242 76.38818359 C60.37573242 77.01318359 60.37573242 77.01318359 57.31323242 76.38818359 C55.12573242 74.20068359 55.12573242 74.20068359 53.31323242 71.38818359 C52.44698242 70.05787109 52.44698242 70.05787109 51.56323242 68.70068359 C50.31323242 66.38818359 50.31323242 66.38818359 50.31323242 64.38818359 C48.02181956 64.33433838 45.73005054 64.29546272 43.43823242 64.26318359 C41.52397461 64.22837891 41.52397461 64.22837891 39.57104492 64.19287109 C36.22729904 64.03176835 36.22729904 64.03176835 34.31323242 66.38818359 C34.11366272 68.94568812 34.03336416 71.392565 34.04760742 73.95068359 C34.04569397 74.69777588 34.04378052 75.44486816 34.04180908 76.21459961 C34.04044744 77.7949253 34.04414243 79.37526218 34.05249023 80.95556641 C34.06319042 83.37867281 34.05259463 85.80103783 34.03979492 88.22412109 C34.04111652 89.7579769 34.04367892 91.29183225 34.04760742 92.82568359 C34.04355896 93.55279541 34.0395105 94.27990723 34.03533936 95.02905273 C33.9459174 99.16287992 33.9459174 99.16287992 36.31323242 102.38818359 C40.42062369 103.54686902 44.50195046 103.5868388 48.75073242 103.63818359 C50.02819336 103.66396484 51.3056543 103.68974609 52.62182617 103.71630859 C58.10834796 103.22861777 61.06976586 101.67504883 64.88745117 97.72412109 C67.71521044 94.06466793 69.9221873 90.06829326 72.12573242 86.01318359 C72.53243164 85.27712891 72.93913086 84.54107422 73.3581543 83.78271484 C74.34891437 81.98769072 75.33189283 80.18837518 76.31323242 78.38818359 C76.97323242 78.38818359 77.63323242 78.38818359 78.31323242 78.38818359 C78.31323242 77.72818359 78.31323242 77.06818359 78.31323242 76.38818359 C81.68823242 76.20068359 81.68823242 76.20068359 85.31323242 76.38818359 C87.41005075 79.53341108 87.56865753 80.29782088 87.57885742 83.88818359 C87.58296631 84.77054687 87.5870752 85.65291016 87.59130859 86.56201172 C87.57741089 87.9609668 87.57741089 87.9609668 87.56323242 89.38818359 C87.55718994 90.33628906 87.55114746 91.28439453 87.54492188 92.26123047 C87.28733887 110.45751821 87.28733887 110.45751821 82.31323242 116.38818359 C78.52648612 119.03895364 74.35709655 118.6766777 69.92041016 118.6628418 C69.07608429 118.66795273 68.23175842 118.67306366 67.36184692 118.67832947 C64.57343442 118.69222003 61.78526914 118.69126949 58.99682617 118.68896484 C57.05916756 118.69285128 55.1215098 118.69718584 53.18385315 118.70195007 C49.12449378 118.70941055 45.06522139 118.70912167 41.00585938 118.70385742 C35.79795251 118.69805457 30.59040033 118.71501431 25.38255215 118.7382021 C21.3823284 118.75291377 17.38219066 118.75381479 13.38194466 118.75069237 C11.46135822 118.7512066 9.54076709 118.75646328 7.62020683 118.76650429 C4.93878779 118.7788055 2.25806754 118.77211593 -0.42333984 118.76049805 C-1.21978409 118.76814178 -2.01622833 118.77578552 -2.83680725 118.78366089 C-8.16593526 118.73248145 -8.16593526 118.73248145 -10.67198181 117.07585144 C-12.46681912 114.09089706 -12.15237152 111.76381218 -11.68676758 108.38818359 C-9.43676758 105.76318359 -9.43676758 105.76318359 -6.68676758 103.38818359 C-1.80606712 97.94968879 -0.44153263 93.02380243 -0.41210938 85.77539062 C-0.40257736 84.48029572 -0.39304535 83.18520081 -0.38322449 81.8508606 C-0.38348597 80.44923882 -0.38442328 79.04761703 -0.38598633 77.64599609 C-0.38209422 76.19399901 -0.37775849 74.74200305 -0.3730011 73.29000854 C-0.3655575 70.2522207 -0.36581634 67.21454911 -0.37109375 64.17675781 C-0.37688225 60.30110453 -0.35996374 56.4259301 -0.33674908 52.55035591 C-0.3219517 49.55273702 -0.32114821 46.55523181 -0.3242588 43.55758286 C-0.32374848 42.12956673 -0.31856548 40.70154375 -0.30844688 39.27356339 C0.00672142 26.97547409 0.00672142 26.97547409 -5.47583008 16.36474609 C-6.08168945 15.91873047 -6.68754883 15.47271484 -7.31176758 15.01318359 C-10.62575063 12.51021749 -10.62575063 12.51021749 -11.68676758 10.38818359 C-11.99926758 6.95068359 -11.99926758 6.95068359 -11.68676758 3.38818359 C-8.38306775 -0.25742511 -4.60732261 -0.03871538 0 0 Z " fill="#344DA9" transform="translate(366.686767578125,50.61181640625)"/>
<path d="M0 0 C1.14230576 -0.00175232 2.28461151 -0.00350464 3.46153259 -0.00531006 C7.22559136 -0.00970006 10.98960289 -0.0068008 14.75366211 -0.00341797 C17.37487293 -0.00409178 19.9960837 -0.00506245 22.61729431 -0.00631714 C28.10554514 -0.00813293 33.59378248 -0.00574776 39.08203125 -0.00097656 C45.41738816 0.00446764 51.75271289 0.00269988 58.08806902 -0.00280297 C64.19682875 -0.00789556 70.30557428 -0.0073467 76.41433525 -0.00442123 C79.00787803 -0.00375436 81.60142163 -0.00457202 84.19496346 -0.00690079 C87.81879984 -0.0094409 91.44257446 -0.00556757 95.06640625 0 C96.67263351 -0.00303635 96.67263351 -0.00303635 98.31130981 -0.00613403 C103.142652 0.0076132 107.7200965 0.10821965 112.46850586 1.12939453 C112.46850586 1.45939453 112.46850586 1.78939453 112.46850586 2.12939453 C111.80405142 2.13178288 111.13959698 2.13417124 110.45500755 2.13663197 C94.27979177 2.19579409 78.10474387 2.27135183 61.92969322 2.36510944 C54.10752078 2.41005566 46.28539375 2.449473 38.46313477 2.47583008 C31.64444419 2.49881971 24.82589747 2.53222843 18.007321 2.57809609 C14.39764442 2.60201545 10.78811017 2.62075259 7.17835617 2.62700844 C3.14644862 2.63419126 -0.88496414 2.66463716 -4.91674805 2.69702148 C-6.70778458 2.69486885 -6.70778458 2.69486885 -8.53500366 2.69267273 C-16.45905874 2.75842202 -16.45905874 2.75842202 -23.53149414 6.12939453 C-29.34961466 14.20697933 -31.63907627 24.30774713 -30.53149414 34.12939453 C-28.61526924 36.51477921 -28.61526924 36.51477921 -25.24243164 36.14501953 C-20.61872824 34.87958492 -18.86001636 32.59130121 -16.15649414 28.87939453 C-10.66605009 21.87427969 -5.49111372 17.67105431 3.46850586 16.12939453 C5.08812083 16.05289672 6.71040031 16.02127772 8.33178711 16.03173828 C9.66113281 16.03657227 9.66113281 16.03657227 11.01733398 16.04150391 C12.38535156 16.05407227 12.38535156 16.05407227 13.78100586 16.06689453 C14.71235352 16.07140625 15.64370117 16.07591797 16.60327148 16.08056641 C18.89174959 16.09230219 21.18009394 16.1087209 23.46850586 16.12939453 C19.92031488 23.61521208 15.99598742 30.76988726 11.76464844 37.88330078 C7.8807887 44.41264724 4.07206895 50.98326582 0.28100586 57.56689453 C-0.35200439 58.66582031 -0.98501465 59.76474609 -1.63720703 60.89697266 C-2.94146599 63.16137706 -4.24558221 65.42586368 -5.54956055 67.69042969 C-8.18709282 72.26696081 -10.83153187 76.8394853 -13.47583008 81.41210938 C-15.94791055 85.69167205 -18.41112311 89.97631264 -20.87475586 94.26074219 C-22.39586147 96.89454574 -23.93162466 99.51908117 -25.47290039 102.14111328 C-26.30519173 103.57455605 -27.13724511 105.00813702 -27.96899414 106.44189453 C-28.34072754 107.06338379 -28.71246094 107.68487305 -29.09545898 108.32519531 C-31.04669854 111.71903024 -32.05431409 114.19750203 -31.53149414 118.12939453 C-29.5253536 120.13553507 -25.46028734 119.28659544 -22.71044922 119.29052734 C-21.89088745 119.29549225 -21.07132568 119.30045715 -20.22692871 119.30557251 C-17.5016192 119.3202378 -14.77636797 119.32700478 -12.05102539 119.33251953 C-10.16110736 119.33826919 -8.27118935 119.34402694 -6.38127136 119.34979248 C-2.41075365 119.36031611 1.55974373 119.36614926 5.53027344 119.36962891 C10.61351953 119.37510414 15.69649647 119.3991056 20.77965832 119.42760086 C24.68735022 119.44624732 28.59497771 119.451434 32.50271034 119.45296478 C34.37616758 119.45598936 36.24962373 119.46401131 38.12303734 119.47714996 C40.7490604 119.49424582 43.37443182 119.49232117 46.00048828 119.48583984 C46.77215836 119.49505463 47.54382843 119.50426941 48.33888245 119.51376343 C53.12623324 119.47683646 56.39571339 118.65300594 60.46850586 116.12939453 C65.99101583 109.23819333 67.78447874 98.82087709 67.86694336 90.25830078 C67.38291548 87.6720734 66.46875556 86.77510262 64.46850586 85.12939453 C69.30257838 85.5437436 71.3638826 87.50733407 74.46850586 91.12939453 C77.83363288 101.2247756 74.7976046 112.33068315 70.26538086 121.58642578 C66.40293986 128.17457672 61.9995231 131.38467037 54.70761108 133.49420166 C47.72424846 134.86364842 40.54685511 134.55702166 33.45678711 134.52783203 C31.71664814 134.52985667 29.97650999 134.53277135 28.2363739 134.53652954 C24.60623012 134.54093103 20.97630912 134.53459008 17.34619141 134.52050781 C12.70603714 134.5033787 8.06640213 134.51329435 3.42626667 134.5312252 C-0.16064842 134.54208936 -3.74744126 134.53860531 -7.33436012 134.53084183 C-9.04509354 134.52884908 -10.75583826 134.53126637 -12.46655846 134.53828049 C-14.85918809 134.54594292 -17.2509866 134.5342264 -19.64355469 134.51757812 C-20.34138565 134.52365082 -21.03921661 134.52972351 -21.75819397 134.53598022 C-27.69867902 134.45982597 -32.06629674 132.88098216 -36.90649414 129.44189453 C-39.21168044 126.16143711 -39.72407451 123.05232788 -39.53149414 119.12939453 C-38.30760491 114.14041096 -35.83273895 109.69309912 -33.53149414 105.12939453 C-35.19438477 105.92216797 -35.19438477 105.92216797 -36.89086914 106.73095703 C-38.35402994 107.40626202 -39.81759294 108.08069606 -41.28149414 108.75439453 C-42.01110352 109.10501953 -42.74071289 109.45564453 -43.49243164 109.81689453 C-48.94233935 112.29412531 -48.94233935 112.29412531 -51.90649414 111.46533203 C-53.94471205 109.78968173 -55.79185251 108.11755639 -57.53149414 106.12939453 C-57.53149414 105.46939453 -57.53149414 104.80939453 -57.53149414 104.12939453 C-58.1205957 103.85611328 -58.70969727 103.58283203 -59.31665039 103.30126953 C-61.46262162 102.16583502 -63.10507264 100.92366802 -64.96899414 99.37939453 C-72.72696828 93.49951469 -82.53487112 88.18003716 -92.53149414 89.12939453 C-97.48214417 90.84372682 -102.07630304 93.16701985 -106.71899414 95.56689453 C-108.57216257 96.51125349 -110.42812178 97.44796942 -112.29304504 98.36891174 C-113.97858733 99.203042 -115.65231548 100.06092267 -117.32519531 100.92016602 C-120.92711328 102.27859895 -123.71328317 102.35126802 -127.53149414 102.12939453 C-124.87193953 99.00286327 -121.51397358 97.36249504 -117.90649414 95.55517578 C-117.25169067 95.22566422 -116.59688721 94.89615265 -115.92224121 94.55665588 C-89.29994452 81.33407833 -89.29994452 81.33407833 -73.53149414 84.12939453 C-72.1412292 84.31569524 -70.75059977 84.49929615 -69.35961914 84.68017578 C-56.73456263 86.52573386 -44.58440715 90.47766588 -33.60571289 96.99267578 C-31.63339047 98.28959015 -31.63339047 98.28959015 -29.53149414 98.12939453 C-28.17222798 96.29163159 -28.17222798 96.29163159 -26.83618164 93.86376953 C-26.02129272 92.45466309 -26.02129272 92.45466309 -25.18994141 91.01708984 C-24.60140381 89.98165039 -24.01286621 88.94621094 -23.40649414 87.87939453 C-22.79410889 86.8155957 -22.18172363 85.75179687 -21.55078125 84.65576172 C-19.88533442 81.7584929 -18.22680151 78.85749643 -16.57208252 75.95410156 C-14.81614589 72.8750071 -13.05413963 69.79938687 -11.29321289 66.72314453 C-7.98052802 60.93416171 -4.6775844 55.13968062 -1.37963867 49.34228516 C1.06552555 45.09151089 3.57864091 40.88188587 6.10546875 36.67919922 C7.30344497 34.43817044 8.01008566 32.61077165 8.46850586 30.12939453 C-2.66531139 32.42461183 -7.83750621 36.81608198 -14.95336914 45.39501953 C-18.03028606 48.77658169 -20.92861315 49.69057391 -25.40258789 50.16845703 C-30.09210202 50.0824109 -33.70159938 47.6826577 -37.53149414 45.12939453 C-38.33586914 45.58378906 -38.33586914 45.58378906 -39.15649414 46.04736328 C-51.79325293 52.80220967 -66.28519546 56.71411806 -80.53149414 58.12939453 C-81.41087646 58.22631592 -82.29025879 58.3232373 -83.19628906 58.4230957 C-92.37568495 58.97243439 -99.31569747 55.71405587 -107.34399414 51.81689453 C-108.62619952 51.21385706 -109.90940084 50.61293251 -111.19360352 50.01416016 C-113.55754639 48.91007465 -115.91283455 47.792442 -118.26513672 46.66333008 C-121.65825937 45.06986348 -125.07860797 43.58782593 -128.53149414 42.12939453 C-127.87149414 41.46939453 -127.21149414 40.80939453 -126.53149414 40.12939453 C-121.89656234 40.46741902 -118.20359586 42.00717679 -114.02368164 43.95751953 C-112.77704066 44.51649773 -111.52961775 45.07373471 -110.28149414 45.62939453 C-108.34497847 46.49789247 -106.41541147 47.37517077 -104.49731445 48.28369141 C-96.57046306 52.01637671 -90.65237086 54.08902523 -82.03295898 51.16064453 C-81.20747559 50.82033203 -80.38199219 50.48001953 -79.53149414 50.12939453 C-77.9343457 49.49130859 -77.9343457 49.49130859 -76.30493164 48.84033203 C-68.33117866 44.39892565 -61.20080256 38.92574046 -55.78149414 31.50439453 C-53.53149414 29.12939453 -53.53149414 29.12939453 -50.78149414 29.00439453 C-46.57220379 30.46145658 -42.54894743 32.20994463 -38.53149414 34.12939453 C-38.61399414 33.22189453 -38.69649414 32.31439453 -38.78149414 31.37939453 C-38.76413883 22.823228 -34.7943566 13.77215386 -29.53149414 7.12939453 C-21.53109631 -0.6658649 -10.43851085 -0.01976991 0 0 Z " fill="#000000" transform="translate(589.531494140625,48.87060546875)"/>
<path d="M0 0 C3.58268509 3.86552865 3.74686424 7.24601201 3.6328125 12.296875 C3.20190468 16.0836407 1.95239432 17.74534807 -0.625 20.5625 C-3.290532 22.54605502 -5.98841285 24.42996019 -8.7734375 26.2421875 C-15.73713317 31.90853713 -20.02304963 40.20646523 -24.63891602 47.7800293 C-25.68513305 49.49611755 -26.73755947 51.20827004 -27.79101562 52.91992188 C-29.14208071 55.12550675 -30.48245484 57.33768315 -31.81103516 59.55688477 C-32.91286998 61.38254945 -34.04130334 63.19295877 -35.21630859 64.97241211 C-39.0282556 71.01149559 -39.32591279 76.20435374 -39.125 83.25 C-39.12757813 84.25611328 -39.13015625 85.26222656 -39.1328125 86.29882812 C-39.0332766 93.84862619 -37.49322067 98.61648672 -32.5 104.375 C-29.26486583 108.60245713 -28.2238597 112.25216651 -28.625 117.5625 C-29.86371718 122.00730871 -30.93945173 123.99617752 -34.5 126.9375 C-40.25743329 129.93136531 -45.88434742 129.73527279 -52.23828125 129.765625 C-53.16666306 129.77132507 -54.09504486 129.77702515 -55.05155945 129.78289795 C-57.01247018 129.79232476 -58.97339659 129.79887269 -60.93432617 129.80273438 C-63.91678837 129.81243265 -66.8985589 129.84347515 -69.88085938 129.875 C-71.7916626 129.88153167 -73.70247073 129.8867815 -75.61328125 129.890625 C-76.4968782 129.9029718 -77.38047516 129.9153186 -78.29084778 129.92803955 C-84.99818046 129.90419382 -90.71412564 128.95090973 -96.0625 124.5625 C-99.33489256 120.37383753 -99.10480936 115.63975543 -98.625 110.5625 C-97.24601448 106.86101256 -95.63256471 104.57135625 -93.0625 101.5625 C-88.49491192 95.94085313 -88.23732109 90.27638191 -88.1875 83.3125 C-88.13819336 82.11947266 -88.13819336 82.11947266 -88.08789062 80.90234375 C-87.9810193 68.87446237 -96.2422073 59.30059725 -102.75463867 49.78320312 C-104.19540591 47.67593681 -105.62464309 45.56118427 -107.05273438 43.4453125 C-107.97328983 42.0906913 -108.89449093 40.73650858 -109.81640625 39.3828125 C-110.2394252 38.75674103 -110.66244415 38.13066956 -111.09828186 37.48562622 C-113.36153175 34.19119013 -115.69025289 31.28012388 -118.625 28.5625 C-118.90472656 29.05202148 -119.18445313 29.54154297 -119.47265625 30.04589844 C-119.87355469 30.7474707 -120.27445313 31.44904297 -120.6875 32.171875 C-121.14648682 32.97512207 -121.60547363 33.77836914 -122.07836914 34.60595703 C-123.1295689 36.44551513 -124.18084106 38.28503187 -125.23217773 40.12451172 C-128.01848813 44.99985523 -130.80407743 49.87560647 -133.58718872 54.7527771 C-134.94502319 57.13213482 -136.30330183 59.51123884 -137.66162109 61.89031982 C-138.34557045 63.08849264 -139.02932696 64.28677556 -139.71289062 65.48516846 C-143.14673727 71.50486412 -146.58951504 77.51861877 -150.08984375 83.5 C-150.60732178 84.3854248 -151.1247998 85.27084961 -151.65795898 86.18310547 C-152.6106245 87.80940649 -153.56696129 89.43356451 -154.52758789 91.05517578 C-156.8133117 94.57204635 -156.8133117 94.57204635 -157.625 98.5625 C-151.03555243 99.11162063 -145.96491325 98.67748692 -140.625 94.5625 C-138.11656502 92.09023568 -135.76651333 89.48233489 -133.48095703 86.80371094 C-129.01679533 81.60284058 -129.01679533 81.60284058 -125.625 80.5625 C-124.635 80.8925 -123.645 81.2225 -122.625 81.5625 C-123.285 82.201875 -123.945 82.84125 -124.625 83.5 C-126.32737425 85.1784645 -127.89140785 86.88276857 -129.421875 88.72265625 C-134.72809408 95.07950671 -140.3299239 99.87779045 -148.625 101.5625 C-150.50377624 101.64276745 -152.3851615 101.67015872 -154.265625 101.66015625 C-155.87050781 101.65532227 -155.87050781 101.65532227 -157.5078125 101.65039062 C-158.61898437 101.64201172 -159.73015625 101.63363281 -160.875 101.625 C-162.56496094 101.61823242 -162.56496094 101.61823242 -164.2890625 101.61132812 C-167.06776217 101.59955397 -169.84635409 101.5831084 -172.625 101.5625 C-168.05799583 91.81040086 -162.77425296 82.56548677 -157.30859375 73.29370117 C-152.75521983 65.55022108 -148.34381136 57.73778475 -144 49.875 C-139.35581623 41.47490708 -134.69092978 33.08886972 -129.9375 24.75 C-129.21602783 23.47926636 -129.21602783 23.47926636 -128.47998047 22.18286133 C-126.00843753 17.86097248 -123.446082 13.66529139 -120.625 9.5625 C-103.97653419 19.3079434 -85.74517012 46.95561156 -79.84619141 64.93640137 C-77.07357334 76.62617007 -78.35329952 89.27355352 -84.625 99.5625 C-85.49125 100.243125 -86.3575 100.92375 -87.25 101.625 C-90.46144504 104.24486306 -90.89607216 106.55339688 -91.625 110.5625 C-91.295 111.5525 -90.965 112.5425 -90.625 113.5625 C-88.177787 114.7861065 -86.57554445 114.69588365 -83.83984375 114.70776367 C-82.8454126 114.71414352 -81.85098145 114.72052338 -80.82641602 114.72709656 C-79.74932373 114.72820938 -78.67223145 114.7293222 -77.5625 114.73046875 C-76.460271 114.73379715 -75.35804199 114.73712555 -74.22241211 114.74055481 C-71.88883889 114.74562393 -69.55525841 114.74796314 -67.22167969 114.74780273 C-63.63985346 114.74999093 -60.05833425 114.76815169 -56.4765625 114.78710938 C-54.21354273 114.79004287 -51.95052148 114.79202796 -49.6875 114.79296875 C-48.61040771 114.80015427 -47.53331543 114.80733978 -46.42358398 114.81474304 C-44.93193726 114.8101281 -44.93193726 114.8101281 -43.41015625 114.80541992 C-42.09349976 114.80755745 -42.09349976 114.80755745 -40.75024414 114.80973816 C-38.40890492 114.76017855 -38.40890492 114.76017855 -36.625 112.5625 C-35.78712879 109.32039481 -35.78712879 109.32039481 -36.625 105.5625 C-38.46800185 103.45865566 -40.41201517 101.70820352 -42.58203125 99.9453125 C-50.22985826 91.02528482 -48.80245404 76.46207417 -48.02929688 65.51806641 C-47.18240186 59.32693652 -44.15297928 55.50513976 -40.23095703 50.70947266 C-35.82872901 44.82421982 -32.31665121 38.20156498 -28.5625 31.88476562 C-18.11155588 14.67692397 -18.11155588 14.67692397 -9.1875 10.375 C-5.27154037 8.3147669 -5.27154037 8.3147669 -3.4375 4.3125 C-3.44490223 1.6015828 -3.44490223 1.6015828 -4.625 -0.4375 C-9.84725007 -2.17825002 -15.46323413 -1.62341808 -20.93115234 -1.62280273 C-23.11705919 -1.62499205 -25.30246347 -1.64316857 -27.48828125 -1.66210938 C-28.87760244 -1.66504301 -30.26692603 -1.66702801 -31.65625 -1.66796875 C-32.92017578 -1.67207764 -34.18410156 -1.67618652 -35.48632812 -1.68041992 C-38.78757631 -1.6821677 -38.78757631 -1.6821677 -41.625 0.5625 C-42.2088196 3.4774255 -42.2088196 3.4774255 -41.625 6.5625 C-40.635 7.5215625 -40.635 7.5215625 -39.625 8.5 C-37.625 10.5625 -37.625 10.5625 -37.29492188 13.77954102 C-37.66865201 18.06278689 -38.77445934 20.43947502 -40.90625 24.15234375 C-41.40566101 25.03642662 -41.40566101 25.03642662 -41.91516113 25.93836975 C-42.97129485 27.80054015 -44.04758575 29.65007733 -45.125 31.5 C-45.84902634 32.76809893 -46.5716968 34.03697302 -47.29296875 35.30664062 C-49.05472671 38.40104412 -50.83474839 41.48447343 -52.625 44.5625 C-53.285 44.5625 -53.945 44.5625 -54.625 44.5625 C-55.91118336 42.76682499 -57.10209484 40.90269419 -58.25 39.015625 C-58.77134521 38.16420929 -58.77134521 38.16420929 -59.30322266 37.29559326 C-60.41730372 35.47195462 -61.52100214 33.64225646 -62.625 31.8125 C-63.36916337 30.59336627 -64.11394754 29.37461123 -64.859375 28.15625 C-72.68199469 15.32242922 -72.68199469 15.32242922 -72.4375 12.0625 C-71.625 9.5625 -71.625 9.5625 -70.0625 7.5625 C-68.23616416 5.021511 -68.23159431 3.63106435 -68.625 0.5625 C-69.615 -0.9225 -69.615 -0.9225 -70.625 -2.4375 C-66.82304378 -1.8943634 -65.12369657 -0.28084437 -62.625 2.5625 C-61.45639978 4.89970044 -61.59554111 5.98329019 -61.7734375 8.5625 C-62.40337431 21.18517885 -62.40337431 21.18517885 -56.3515625 32.04296875 C-54.75810648 33.78272206 -54.75810648 33.78272206 -52.625 33.5625 C-49.21092984 28.1853395 -46.73898263 24.14434335 -47.625 17.5625 C-47.975625 16.77875 -48.32625 15.995 -48.6875 15.1875 C-50.11283549 11.19656062 -49.77264755 7.61605 -48.625 3.5625 C-44.9425096 -1.11525808 -41.82420654 -3.11213143 -36.0078125 -3.97265625 C-25.24744217 -5.24459063 -8.95069384 -6.99207142 0 0 Z " fill="#000000" transform="translate(772.625,53.4375)"/>
<path d="M0 0 C7.61598336 6.26203077 13.00288403 13.2743612 14.15625 23.30078125 C14.43841742 32.55352113 12.38650024 39.94043516 6.8125 47.3125 C6.1525 47.9725 5.4925 48.6325 4.8125 49.3125 C6.4625 49.6425 8.1125 49.9725 9.8125 50.3125 C10.69921875 52.96484375 10.69921875 52.96484375 10.8125 56.3125 C8.76868176 58.52178479 7.00580161 60.11265372 4.625 61.875 C0.47158928 65.07724796 -3.06264984 68.02455425 -6.1875 72.3125 C-9.1575 71.8175 -9.1575 71.8175 -12.1875 71.3125 C-11.98833984 72.42431641 -11.98833984 72.42431641 -11.78515625 73.55859375 C-10.56690396 80.82364574 -9.86023874 87.95629589 -9.52954102 95.31030273 C-9.32471141 99.70136995 -8.80941148 103.96421728 -8.1875 108.3125 C-8.1258819 110.1240721 -8.10017192 111.93755032 -8.125 113.75 C-8.13402344 114.61496094 -8.14304687 115.47992188 -8.15234375 116.37109375 C-8.16394531 117.01175781 -8.17554688 117.65242188 -8.1875 118.3125 C-9.1775 118.6425 -10.1675 118.9725 -11.1875 119.3125 C-11.92073796 121.32758358 -11.92073796 121.32758358 -12.1875 123.3125 C-12.8475 123.3125 -13.5075 123.3125 -14.1875 123.3125 C-14.1875 123.9725 -14.1875 124.6325 -14.1875 125.3125 C-14.8475 125.3125 -15.5075 125.3125 -16.1875 125.3125 C-16.1875 125.9725 -16.1875 126.6325 -16.1875 127.3125 C-20.20162909 125.97445697 -20.91755954 123.78834633 -23.1875 120.3125 C-24.6725 119.3225 -24.6725 119.3225 -26.1875 118.3125 C-26.30527467 115.77556985 -26.22458799 113.51527412 -26 111 C-25.94465088 110.2383252 -25.88930176 109.47665039 -25.83227539 108.69189453 C-25.70385638 106.93427655 -25.56880075 105.17713645 -25.42871094 103.42041016 C-25.04753506 98.50910552 -24.72645227 93.59384204 -24.39526367 88.67895508 C-24.00475571 82.88929622 -23.59603074 77.10091074 -23.1875 71.3125 C-23.7844165 71.52148926 -24.38133301 71.73047852 -24.99633789 71.94580078 C-27.1875 72.3125 -27.1875 72.3125 -30.24609375 70.1796875 C-31.38364466 69.19514052 -32.50961161 68.19708584 -33.625 67.1875 C-34.18509766 66.70023437 -34.74519531 66.21296875 -35.32226562 65.7109375 C-45.09616188 57.13454312 -45.09616188 57.13454312 -45.5 53.5 C-45.3453125 52.4171875 -45.3453125 52.4171875 -45.1875 51.3125 C-43.5375 50.6525 -41.8875 49.9925 -40.1875 49.3125 C-40.58582031 48.83941406 -40.98414063 48.36632812 -41.39453125 47.87890625 C-47.29240186 40.51733053 -49.86796952 33.63785166 -49.5234375 24.13671875 C-48.33813468 14.17190547 -43.75079259 6.82298226 -36.1875 0.3125 C-24.71250267 -6.71756319 -11.70871977 -6.198734 0 0 Z " fill="#354EAB" transform="translate(339.1875,31.6875)"/>
<path d="M0 0 C1.11632812 0.22623047 2.23265625 0.45246094 3.3828125 0.68554688 C4.54039062 0.94013672 5.69796875 1.19472656 6.890625 1.45703125 C8.03273438 1.69228516 9.17484375 1.92753906 10.3515625 2.16992188 C12.58790011 2.63389767 14.82176514 3.1099834 17.05273438 3.59912109 C18.98654477 4.01896955 20.92501215 4.41846374 22.86914062 4.78759766 C29.67980865 6.11526432 29.67980865 6.11526432 32.140625 9.26953125 C32.03942604 14.37285017 29.78622691 18.0223471 27.015625 22.14453125 C26.60820068 22.76021973 26.20077637 23.3759082 25.78100586 24.01025391 C16.50228715 37.81105246 5.07535143 46.95795577 -10.859375 52.26953125 C-17.25671012 52.93391756 -22.16250159 51.83439275 -27.95703125 49.20703125 C-29.03663368 48.74091431 -29.03663368 48.74091431 -30.13804626 48.26538086 C-32.40630848 47.28193483 -34.66388314 46.27630073 -36.921875 45.26953125 C-38.470049 44.59355198 -40.01887266 43.91905854 -41.56835938 43.24609375 C-45.3397519 41.60430359 -49.101741 39.94255716 -52.859375 38.26953125 C-52.98957031 39.2028125 -53.11976563 40.13609375 -53.25390625 41.09765625 C-53.98591668 44.93244639 -55.07235659 46.55783766 -57.859375 49.26953125 C-63.17123237 51.86369415 -66.47128506 51.26953125 -72.859375 51.26953125 C-72.859375 60.50953125 -72.859375 69.74953125 -72.859375 79.26953125 C-71.539375 79.92953125 -70.219375 80.58953125 -68.859375 81.26953125 C-69.519375 81.26953125 -70.179375 81.26953125 -70.859375 81.26953125 C-71.24029297 82.29240234 -71.24029297 82.29240234 -71.62890625 83.3359375 C-75.3240556 92.14564278 -79.86136053 100.78069779 -87.859375 106.26953125 C-91.44151139 107.46357671 -94.39558758 107.43835525 -98.171875 107.45703125 C-99.46738281 107.47121094 -100.76289063 107.48539062 -102.09765625 107.5 C-106.79627674 107.21213021 -110.46818663 106.66071962 -113.859375 103.26953125 C-114.07122148 100.72379565 -114.16336308 98.28952487 -114.16015625 95.7421875 C-114.16444138 94.99746689 -114.1687265 94.25274628 -114.17314148 93.48545837 C-114.17888782 91.90934262 -114.1793828 90.33320035 -114.17504883 88.75708008 C-114.17189165 86.34475433 -114.19533256 83.93365813 -114.22070312 81.52148438 C-114.22297637 79.99088697 -114.22367949 78.46028625 -114.22265625 76.9296875 C-114.231866 76.20773697 -114.24107574 75.48578644 -114.25056458 74.74195862 C-114.20460799 69.76895082 -114.20460799 69.76895082 -112.51025391 67.31787109 C-109.998185 65.72265904 -107.86673733 65.83567138 -104.921875 65.83203125 C-103.88160156 65.81269531 -102.84132813 65.79335937 -101.76953125 65.7734375 C-98.15707593 66.38925203 -97.10615339 67.42757978 -94.859375 70.26953125 C-94.02966535 71.66425791 -93.23560191 73.08101163 -92.484375 74.51953125 C-91.31064753 76.62139963 -91.31064753 76.62139963 -89.859375 78.26953125 C-86.6452936 78.93965547 -86.6452936 78.93965547 -83.859375 78.26953125 C-81.49949803 74.56274338 -81.60125105 71.30899978 -81.59375 66.984375 C-81.59183655 66.28687637 -81.5899231 65.58937775 -81.58795166 64.8707428 C-81.58659427 63.40072263 -81.59025951 61.9306903 -81.59863281 60.46069336 C-81.60935536 58.21115243 -81.59871466 55.96240709 -81.5859375 53.71289062 C-81.58725886 52.28255032 -81.58982076 50.85221052 -81.59375 49.421875 C-81.59600586 48.12241943 -81.59826172 46.82296387 -81.60058594 45.48413086 C-81.60944473 42.11777088 -81.60944473 42.11777088 -83.859375 39.26953125 C-86.78454229 38.61286717 -86.78454229 38.61286717 -89.859375 39.26953125 C-92.02384802 41.35751171 -92.02384802 41.35751171 -93.609375 44.14453125 C-96.83611919 49.24627544 -96.83611919 49.24627544 -98.859375 51.26953125 C-101.3203125 51.60546875 -101.3203125 51.60546875 -104.234375 51.64453125 C-105.19085938 51.67289063 -106.14734375 51.70125 -107.1328125 51.73046875 C-110.66788536 51.13284898 -111.64792866 50.05611034 -113.859375 47.26953125 C-114.36108398 44.47631836 -114.36108398 44.47631836 -114.35546875 41.296875 C-114.35611328 40.15025391 -114.35675781 39.00363281 -114.35742188 37.82226562 C-114.33744141 36.62923828 -114.31746094 35.43621094 -114.296875 34.20703125 C-114.30750977 32.41168945 -114.30750977 32.41168945 -114.31835938 30.58007812 C-114.25450787 21.85206912 -114.25450787 21.85206912 -112.61572266 19.43603516 C-107.00483815 15.7094844 -96.28021224 17.53399752 -89.859375 18.26953125 C-81.68154466 20.59344706 -77.16065809 27.13504547 -72.37890625 33.7578125 C-68.83229608 37.29342543 -65.69005928 37.26953125 -60.859375 37.26953125 C-60.13961282 26.1731977 -61.73751445 15.17185694 -68.859375 6.26953125 C-68.529375 5.60953125 -68.199375 4.94953125 -67.859375 4.26953125 C-60.1275067 8.3195575 -56.5452253 15.51713781 -53.984375 23.64453125 C-53.09219261 26.79280703 -52.859375 28.9124962 -52.859375 32.26953125 C-35.47847792 27.25786154 -21.75628769 21.30714747 -12.52734375 4.65234375 C-9.08542369 -0.26468491 -5.73097914 -1.21055687 0 0 Z M-6.859375 4.26953125 C-8.53466099 6.18632752 -8.53466099 6.18632752 -9.734375 8.76953125 C-17.70662419 23.07921398 -30.45814234 30.53069043 -45.859375 35.26953125 C-41.01744011 38.49748785 -35.72027399 40.70201749 -30.421875 43.08203125 C-29.29587891 43.62279297 -28.16988281 44.16355469 -27.00976562 44.72070312 C-19.76541955 47.93254374 -15.12705974 48.77462838 -7.50805664 46.36450195 C7.72960524 40.06521966 20.374522 27.26525169 27.140625 12.26953125 C27.140625 11.60953125 27.140625 10.94953125 27.140625 10.26953125 C23.10347468 9.40859816 19.06497837 8.5543184 15.02514648 7.70605469 C13.65236903 7.41684459 12.27996598 7.12585114 10.90795898 6.83300781 C8.93049426 6.41126343 6.9517511 5.99604962 4.97265625 5.58203125 C3.78389893 5.33066406 2.5951416 5.07929687 1.37036133 4.8203125 C-1.4860822 4.33319053 -3.97684968 4.00232449 -6.859375 4.26953125 Z M-105.859375 32.26953125 C-106.88170379 35.33651762 -107.0252799 37.55618003 -107.046875 40.76953125 C-107.06105469 41.72859375 -107.07523437 42.68765625 -107.08984375 43.67578125 C-107.04692611 46.50699264 -107.04692611 46.50699264 -104.859375 49.26953125 C-101.71772617 47.92023335 -100.11573689 46.57602618 -98.109375 43.83203125 C-94.84935776 39.81970234 -91.76461622 38.70727437 -86.859375 37.26953125 C-87.36193612 35.25520859 -87.36193612 35.25520859 -88.859375 33.26953125 C-93.90721445 31.25039547 -100.75122453 29.71545601 -105.859375 32.26953125 Z M-104.859375 80.26953125 C-106.92873077 83.3735649 -107.11455409 84.08853144 -107.125 87.61328125 C-107.12757813 88.44730469 -107.13015625 89.28132813 -107.1328125 90.140625 C-107.12507813 91.00816406 -107.11734375 91.87570313 -107.109375 92.76953125 C-107.11710937 93.63707031 -107.12484375 94.50460938 -107.1328125 95.3984375 C-107.13023437 96.23246094 -107.12765625 97.06648438 -107.125 97.92578125 C-107.12274414 98.68697266 -107.12048828 99.44816406 -107.11816406 100.23242188 C-106.97348811 102.58089871 -106.97348811 102.58089871 -104.859375 105.26953125 C-99.95534253 106.08235431 -94.37528533 106.4144118 -89.7734375 104.3203125 C-86.72315391 101.86615033 -84.52446755 98.78472663 -82.859375 95.26953125 C-82.859375 94.27953125 -82.859375 93.28953125 -82.859375 92.26953125 C-83.6328125 92.15738281 -84.40625 92.04523438 -85.203125 91.9296875 C-92.8646519 90.47892807 -96.62172768 88.36869764 -101.3359375 82.1328125 C-101.83867187 81.51792969 -102.34140625 80.90304688 -102.859375 80.26953125 C-103.519375 80.26953125 -104.179375 80.26953125 -104.859375 80.26953125 Z " fill="#000000" transform="translate(513.859375,47.73046875)"/>
<path d="M0 0 C5.38155688 0.30541125 10.06598023 1.90020909 15.14453125 3.625 C21.0470396 5.4473868 25.13272596 5.02019029 30.9921875 3.2265625 C32.05566406 2.94554688 33.11914062 2.66453125 34.21484375 2.375 C35.15199219 2.11976562 36.08914063 1.86453125 37.0546875 1.6015625 C41.88276262 0.37136154 46.02919357 -0.05976407 50.9921875 0.2265625 C51.87890625 2.87890625 51.87890625 2.87890625 51.9921875 6.2265625 C49.94836926 8.43584729 48.18548911 10.02671622 45.8046875 11.7890625 C41.65127678 14.99131046 38.11703766 17.93861675 34.9921875 22.2265625 C33.0121875 21.8965625 31.0321875 21.5665625 28.9921875 21.2265625 C29.19134766 22.33837891 29.19134766 22.33837891 29.39453125 23.47265625 C30.61278354 30.73770824 31.31944876 37.87035839 31.65014648 45.22436523 C31.85497609 49.61543245 32.37027602 53.87827978 32.9921875 58.2265625 C33.0538056 60.0381346 33.07951558 61.85161282 33.0546875 63.6640625 C33.04566406 64.52902344 33.03664063 65.39398438 33.02734375 66.28515625 C33.01574219 66.92582031 33.00414062 67.56648438 32.9921875 68.2265625 C32.0021875 68.5565625 31.0121875 68.8865625 29.9921875 69.2265625 C29.25894954 71.24164608 29.25894954 71.24164608 28.9921875 73.2265625 C28.3321875 73.2265625 27.6721875 73.2265625 26.9921875 73.2265625 C26.9921875 73.8865625 26.9921875 74.5465625 26.9921875 75.2265625 C26.3321875 75.2265625 25.6721875 75.2265625 24.9921875 75.2265625 C24.9921875 75.8865625 24.9921875 76.5465625 24.9921875 77.2265625 C20.97805841 75.88851947 20.26212796 73.70240883 17.9921875 70.2265625 C16.5071875 69.2365625 16.5071875 69.2365625 14.9921875 68.2265625 C14.87441283 65.68963235 14.95509951 63.42933662 15.1796875 60.9140625 C15.23503662 60.1523877 15.29038574 59.39071289 15.34741211 58.60595703 C15.47583112 56.84833905 15.61088675 55.09119895 15.75097656 53.33447266 C16.13215244 48.42316802 16.45323523 43.50790454 16.78442383 38.59301758 C17.17493179 32.80335872 17.58365676 27.01497324 17.9921875 21.2265625 C17.395271 21.43555176 16.79835449 21.64454102 16.18334961 21.85986328 C13.9921875 22.2265625 13.9921875 22.2265625 10.93359375 20.09375 C9.79604284 19.10920302 8.67007589 18.11114834 7.5546875 17.1015625 C6.99458984 16.61429688 6.43449219 16.12703125 5.85742188 15.625 C-3.89289419 7.06929675 -3.89289419 7.06929675 -4.3828125 3.4765625 C-3.81289882 0.05708044 -3.57093144 0.26897925 0 0 Z " fill="#205EE2" transform="translate(298.0078125,81.7734375)"/>
<path d="M0 0 C4.01627658 0.10408866 8.03322687 0.1483418 12.05047607 0.19836426 C19.86996334 0.30418636 27.68621437 0.47379945 35.50360107 0.68664551 C35.50360107 2.66664551 35.50360107 4.64664551 35.50360107 6.68664551 C30.46474781 9.36032275 25.30770176 11.75021327 20.06610107 13.99914551 C19.45822754 14.27774414 18.850354 14.55634277 18.22406006 14.84338379 C13.0303888 17.01229065 8.9681763 16.70185202 3.50360107 15.68664551 C2.66208496 15.53219971 1.82056885 15.37775391 0.95355225 15.21862793 C-2.66572625 14.5291939 -6.27859853 13.81332252 -9.8850708 13.05969238 C-23.52610412 10.41292472 -33.34759883 11.10728546 -45.68389893 17.68664551 C-53.71499931 21.92408885 -60.24130543 25.07749537 -69.49639893 23.68664551 C-70.49639893 22.68664551 -70.49639893 22.68664551 -70.55889893 20.12414551 C-70.53827393 19.31977051 -70.51764893 18.51539551 -70.49639893 17.68664551 C-64.67052285 14.94612436 -64.67052285 14.94612436 -62.40414429 13.92721558 C-58.50577773 12.1611032 -54.76532917 10.29377544 -51.07843018 8.11828613 C-34.47221324 -1.17640669 -18.44197705 -0.53014774 0 0 Z " fill="#344DAA" transform="translate(530.4963989257813,119.3133544921875)"/>
<path d="M0 0 C7.12098136 0.06956554 12.64779784 3.3635149 18.8828125 6.50390625 C29.62502921 11.64003316 36.91585148 14.22420686 48.7578125 11.44140625 C50.38043976 11.12467317 52.00421896 10.81380317 53.62890625 10.5078125 C56.86025559 9.87935712 60.07589143 9.20947419 63.28515625 8.4765625 C64.02950928 8.31349609 64.7738623 8.15042969 65.54077148 7.98242188 C67.76178107 7.47597339 67.76178107 7.47597339 69.88305664 6.71289062 C77.14211806 4.44417706 82.5289901 6.98361837 89.3203125 9.81640625 C90.42439453 10.2546875 91.52847656 10.69296875 92.66601562 11.14453125 C95.37259382 12.22247581 98.0683786 13.32152585 100.7578125 14.44140625 C100.7578125 16.42140625 100.7578125 18.40140625 100.7578125 20.44140625 C97.99554347 21.82254076 95.66475346 21.65923603 92.57421875 21.7578125 C91.27234619 21.80091553 89.97047363 21.84401855 88.62915039 21.88842773 C85.70275492 21.97089165 82.77626032 22.03973959 79.84936523 22.10180664 C79.09243881 22.11786453 78.33551239 22.13392242 77.5556488 22.15046692 C75.98890848 22.18326152 74.42214509 22.21497073 72.85536194 22.24565125 C68.27298518 22.34604196 63.71284207 22.54942127 59.13980103 22.85577393 C35.46789509 24.39126696 17.86958293 19.01482462 -3.2421875 8.44140625 C-3.9021875 8.11140625 -4.5621875 7.78140625 -5.2421875 7.44140625 C-5.28473106 5.44185879 -5.28299533 3.44098989 -5.2421875 1.44140625 C-3.67620858 -0.12457267 -2.18028811 0.11775229 0 0 Z M57.7578125 16.44140625 C57.7578125 16.77140625 57.7578125 17.10140625 57.7578125 17.44140625 C64.0278125 17.44140625 70.2978125 17.44140625 76.7578125 17.44140625 C76.7578125 17.11140625 76.7578125 16.78140625 76.7578125 16.44140625 C70.4878125 16.44140625 64.2178125 16.44140625 57.7578125 16.44140625 Z M32.7578125 17.44140625 C32.7578125 17.77140625 32.7578125 18.10140625 32.7578125 18.44140625 C36.0578125 18.44140625 39.3578125 18.44140625 42.7578125 18.44140625 C42.7578125 18.11140625 42.7578125 17.78140625 42.7578125 17.44140625 C39.4578125 17.44140625 36.1578125 17.44140625 32.7578125 17.44140625 Z " fill="#344DAB" transform="translate(465.2421875,96.55859375)"/>
<path d="M0 0 C17.2799329 6.01582298 29.74476247 18.75581182 38.56640625 34.4453125 C40.00390625 38.1328125 40.00390625 38.1328125 39.54174805 40.72119141 C37.70927902 43.59484262 36.16959775 44.11568851 32.92549133 44.94467163 C32.23593857 45.09699249 31.5463858 45.24931335 30.8359375 45.40625 C30.12289963 45.5791153 29.40986176 45.75198059 28.67521667 45.93008423 C27.16535541 46.29121933 25.65296532 46.64191824 24.13842773 46.98291016 C21.83605399 47.50337105 19.54453277 48.05923292 17.25195312 48.62109375 C15.78045324 48.9682945 14.30846034 49.31341367 12.8359375 49.65625 C11.81679008 49.90294937 11.81679008 49.90294937 10.77705383 50.15463257 C6.24199716 51.1543495 2.52681879 51.20236318 -1.99609375 50.1328125 C-4.078125 47.7265625 -4.078125 47.7265625 -5.80859375 44.6328125 C-12.75321615 33.43095031 -22.18304147 25.85394533 -35.13818359 22.59375 C-39.73027404 21.58682653 -44.34547952 20.81339019 -48.99609375 20.1328125 C-49.32609375 19.1428125 -49.65609375 18.1528125 -49.99609375 17.1328125 C-48.30375054 13.74812609 -44.43648465 12.92223091 -41.09375 11.47265625 C-40.30085068 11.1227211 -39.50795135 10.77278595 -38.69102478 10.4122467 C-36.14952044 9.29215237 -33.60418413 8.18108505 -31.05859375 7.0703125 C-29.34543717 6.31766237 -27.632543 5.56441462 -25.91992188 4.81054688 C-23.50948346 3.74962454 -21.09867446 2.68964762 -18.68580627 1.63426208 C-11.4018614 -1.55198128 -7.71453417 -2.23288994 0 0 Z M-17.70703125 5.9765625 C-18.32003082 6.26511108 -18.9330304 6.55365967 -19.56460571 6.85095215 C-21.50540268 7.76752652 -23.4381468 8.69981518 -25.37109375 9.6328125 C-26.69220706 10.26017128 -28.0138174 10.88648452 -29.3359375 11.51171875 C-32.56182806 13.04003044 -35.78069785 14.58252101 -38.99609375 16.1328125 C-38.99609375 16.4628125 -38.99609375 16.7928125 -38.99609375 17.1328125 C-38.18527344 17.35195312 -37.37445313 17.57109375 -36.5390625 17.796875 C-18.99495294 22.82114852 -8.49020101 30.75538877 1.00390625 46.1328125 C8.80023036 45.63612705 16.08465075 44.04575243 23.62890625 42.0703125 C25.27826172 41.64782227 25.27826172 41.64782227 26.9609375 41.21679688 C29.64367215 40.52861712 32.32451054 39.83385812 35.00390625 39.1328125 C29.26280524 24.20563854 16.5739858 12.60977323 2.36328125 5.8828125 C-5.24323236 2.60335753 -10.05148817 2.32437681 -17.70703125 5.9765625 Z " fill="#344DAA" transform="translate(507.99609375,140.8671875)"/>
<path d="M0 0 C1.67449219 0.3393457 1.67449219 0.3393457 3.3828125 0.68554688 C4.54039062 0.94013672 5.69796875 1.19472656 6.890625 1.45703125 C8.03273438 1.69228516 9.17484375 1.92753906 10.3515625 2.16992188 C12.58790011 2.63389767 14.82176514 3.1099834 17.05273438 3.59912109 C18.98654477 4.01896955 20.92501215 4.41846374 22.86914062 4.78759766 C29.67980865 6.11526432 29.67980865 6.11526432 32.140625 9.26953125 C32.03942604 14.37285017 29.78622691 18.0223471 27.015625 22.14453125 C26.60820068 22.76021973 26.20077637 23.3759082 25.78100586 24.01025391 C16.50228715 37.81105246 5.07535143 46.95795577 -10.859375 52.26953125 C-17.37495214 52.95975592 -22.40214868 51.7504144 -28.32421875 49.12890625 C-29.08360245 48.80545227 -29.84298615 48.48199829 -30.62538147 48.14874268 C-32.21435922 47.46725066 -33.79992205 46.77774472 -35.38208008 46.08056641 C-37.80616326 45.01545009 -40.24236367 43.98289504 -42.68164062 42.953125 C-44.22998251 42.28443802 -45.77753898 41.6139288 -47.32421875 40.94140625 C-48.05124496 40.6339447 -48.77827118 40.32648315 -49.52732849 40.00970459 C-54.52441992 37.77721753 -54.52441992 37.77721753 -56.33032227 35.04003906 C-56.59220337 34.1636377 -56.59220337 34.1636377 -56.859375 33.26953125 C-54.07435925 32.2910122 -51.30310384 31.37742667 -48.43359375 30.6796875 C-33.95524465 27.13867303 -21.96619407 20.31462723 -14.046875 7.39453125 C-13.54542969 6.48960938 -13.04398437 5.5846875 -12.52734375 4.65234375 C-9.08542369 -0.26468491 -5.73097914 -1.21055687 0 0 Z M-6.859375 4.26953125 C-8.53466099 6.18632752 -8.53466099 6.18632752 -9.734375 8.76953125 C-17.70662419 23.07921398 -30.45814234 30.53069043 -45.859375 35.26953125 C-41.01744011 38.49748785 -35.72027399 40.70201749 -30.421875 43.08203125 C-29.29587891 43.62279297 -28.16988281 44.16355469 -27.00976562 44.72070312 C-19.76541955 47.93254374 -15.12705974 48.77462838 -7.50805664 46.36450195 C7.72960524 40.06521966 20.374522 27.26525169 27.140625 12.26953125 C27.140625 11.60953125 27.140625 10.94953125 27.140625 10.26953125 C23.10347468 9.40859816 19.06497837 8.5543184 15.02514648 7.70605469 C13.65236903 7.41684459 12.27996598 7.12585114 10.90795898 6.83300781 C8.93049426 6.41126343 6.9517511 5.99604962 4.97265625 5.58203125 C3.78389893 5.33066406 2.5951416 5.07929687 1.37036133 4.8203125 C-1.4860822 4.33319053 -3.97684968 4.00232449 -6.859375 4.26953125 Z " fill="#344DAA" transform="translate(513.859375,47.73046875)"/>
<path d="M0 0 C1.39026494 0.1863007 2.78089437 0.36990162 4.171875 0.55078125 C16.92423838 2.41494932 31.51263524 6.2776655 42 14 C43.29296875 16.18359375 43.29296875 16.18359375 44 18 C39.92721373 20.53470128 35.74912879 22.72239873 31.4375 24.8125 C30.77814453 25.14958984 30.11878906 25.48667969 29.43945312 25.83398438 C24.58611353 28.1704162 24.58611353 28.1704162 21.67578125 27.32421875 C19.59037294 25.67630869 17.75188279 24.00215177 16 22 C16 21.34 16 20.68 16 20 C15.41089844 19.72671875 14.82179688 19.4534375 14.21484375 19.171875 C12.06887252 18.03644049 10.4264215 16.79427349 8.5625 15.25 C0.80452586 9.37012016 -9.00337698 4.05064263 -19 5 C-23.95065003 6.71433229 -28.5448089 9.03762532 -33.1875 11.4375 C-35.04066843 12.38185896 -36.89662764 13.31857489 -38.7615509 14.23951721 C-40.44709319 15.07364747 -42.12082134 15.93152814 -43.79370117 16.79077148 C-47.39561914 18.14920442 -50.18178902 18.22187349 -54 18 C-51.34044539 14.87346874 -47.98247944 13.23310051 -44.375 11.42578125 C-43.72019653 11.09626968 -43.06539307 10.76675812 -42.39074707 10.42726135 C-15.76845038 -2.7953162 -15.76845038 -2.7953162 0 0 Z " fill="#344DAA" transform="translate(516,133)"/>
<path d="M0 0 C4.91762134 0.31096723 9.24115745 2.09055762 13.75 3.9375 C14.42160156 4.20240234 15.09320312 4.46730469 15.78515625 4.74023438 C18.65049971 5.89728188 20.79293383 6.79293383 23 9 C23 9.99 23 10.98 23 12 C11.88722829 20.84311121 -3.16392457 24.67470259 -16.8125 27.375 C-18.0643811 27.62672974 -18.0643811 27.62672974 -19.34155273 27.88354492 C-32.61680925 30.29498011 -41.87027424 28.48459277 -53.8125 22.6875 C-55.09470538 22.08446253 -56.3779067 21.48353797 -57.66210938 20.88476562 C-60.02605225 19.78068012 -62.38134041 18.66304747 -64.73364258 17.53393555 C-68.12676523 15.94046895 -71.54711382 14.4584314 -75 13 C-74.34 12.34 -73.68 11.68 -73 11 C-68.3650682 11.33802449 -64.67210172 12.87778226 -60.4921875 14.828125 C-59.24554652 15.3871032 -57.9981236 15.94434018 -56.75 16.5 C-54.81348433 17.36849794 -52.88391733 18.24577624 -50.96582031 19.15429688 C-43.03896892 22.88698218 -37.12087672 24.95963069 -28.50146484 22.03125 C-27.67598145 21.6909375 -26.85049805 21.350625 -26 21 C-24.93523437 20.57460937 -23.87046875 20.14921875 -22.7734375 19.7109375 C-14.79968452 15.26953112 -7.66930842 9.79634593 -2.25 2.375 C-1.5075 1.59125 -0.765 0.8075 0 0 Z " fill="#344DAA" transform="translate(536,78)"/>
<path d="M0 0 C5.38155688 0.30541125 10.06598023 1.90020909 15.14453125 3.625 C21.0470396 5.4473868 25.13272596 5.02019029 30.9921875 3.2265625 C32.05566406 2.94554688 33.11914062 2.66453125 34.21484375 2.375 C35.15199219 2.11976562 36.08914063 1.86453125 37.0546875 1.6015625 C41.88276262 0.37136154 46.02919357 -0.05976407 50.9921875 0.2265625 C51.87890625 2.87890625 51.87890625 2.87890625 51.9921875 6.2265625 C49.94836926 8.43584729 48.18548911 10.02671622 45.8046875 11.7890625 C41.65127678 14.99131046 38.11703766 17.93861675 34.9921875 22.2265625 C32.6796875 22.1640625 32.6796875 22.1640625 29.9921875 21.2265625 C28.71482075 18.81375863 27.82328601 16.78219042 26.9921875 14.2265625 C26.6003125 13.0921875 26.2084375 11.9578125 25.8046875 10.7890625 C25.5365625 9.9434375 25.2684375 9.0978125 24.9921875 8.2265625 C24.3321875 8.2265625 23.6721875 8.2265625 22.9921875 8.2265625 C22.88003906 8.78859375 22.76789063 9.350625 22.65234375 9.9296875 C21.90161411 12.54169358 20.78051374 14.62127572 19.4296875 16.9765625 C18.97464844 17.77578125 18.51960938 18.575 18.05078125 19.3984375 C17.70144531 20.00171875 17.35210937 20.605 16.9921875 21.2265625 C10.4594552 21.2265625 6.73095637 16.39777319 1.9921875 12.2265625 C1.31542969 11.64648438 0.63867188 11.06640625 -0.05859375 10.46875 C-2.55882672 8.18930133 -3.916498 6.81358429 -4.4453125 3.4140625 C-3.77398776 0.05743878 -3.54186403 0.26678976 0 0 Z " fill="#DBE1EB" transform="translate(298.0078125,81.7734375)"/>
<path d="M0 0 C3.27569152 0.24264382 4.16147828 1.1696286 6.4765625 3.6015625 C9.12870361 6.89580093 10.41379477 10.20461062 11.6875 14.25 C11.89463623 14.90460205 12.10177246 15.5592041 12.31518555 16.23364258 C14.3385165 22.78273961 16 29.13153005 16 36 C17.32 36 18.64 36 20 36 C20 36.66 20 37.32 20 38 C16.37 38 12.74 38 9 38 C8.84144531 36.8140625 8.68289063 35.628125 8.51953125 34.40625 C6.97979302 23.51729362 4.60790303 13.38245476 1 3 C0.67 2.01 0.34 1.02 0 0 Z " fill="#000000" transform="translate(274,50)"/>
<path d="M0 0 C3.81953072 0.0547603 3.81953072 0.0547603 6.125 2 C7.28085054 4.67290438 7.26603264 6.42133083 7.125 9.3125 C7.4653125 10.611875 7.4653125 10.611875 7.8125 11.9375 C8.125 14.3125 8.125 14.3125 6.93359375 15.9453125 C4.6345415 17.68325696 3.35064039 17.65535474 0.5 17.5625 C-0.69496094 17.53929687 -0.69496094 17.53929687 -1.9140625 17.515625 C-3.875 17.3125 -3.875 17.3125 -4.875 16.3125 C-4.97475032 13.80113896 -5.01382183 11.32346585 -5 8.8125 C-5.00386719 8.10996094 -5.00773437 7.40742188 -5.01171875 6.68359375 C-4.99961779 0.40319498 -4.99961779 0.40319498 0 0 Z M0.125 4.3125 C0.125 4.9725 0.125 5.6325 0.125 6.3125 C0.785 5.9825 1.445 5.6525 2.125 5.3125 C1.465 4.9825 0.805 4.6525 0.125 4.3125 Z M0.125 11.3125 C0.125 11.9725 0.125 12.6325 0.125 13.3125 C1.445 12.9825 2.765 12.6525 4.125 12.3125 C2.805 11.9825 1.485 11.6525 0.125 11.3125 Z " fill="#66727D" transform="translate(390.875,192.6875)"/>
<path d="M0 0 C2.92870299 0.06309594 4.08202629 0.25185262 6.6875 1.75 C8.92832727 5.57807992 8.80655666 8.98703999 8.1875 13.3125 C7.25 15.875 7.25 15.875 5.1875 17.3125 C2.15210647 17.68440407 -0.77657327 17.68140743 -3.8125 17.3125 C-5.56809942 15.55690058 -4.94471919 13.27667558 -4.94921875 10.94140625 C-4.94535156 10.23886719 -4.94148437 9.53632813 -4.9375 8.8125 C-4.94136719 8.10996094 -4.94523438 7.40742188 -4.94921875 6.68359375 C-4.93712065 0.40468202 -4.93712065 0.40468202 0 0 Z M0.1875 4.3125 C-1.01811184 5.29517859 -1.01811184 5.29517859 -0.91015625 7.16015625 C-0.89855469 7.89105469 -0.88695312 8.62195313 -0.875 9.375 C-0.854375 10.674375 -0.83375 11.97375 -0.8125 13.3125 C0.5075 13.3125 1.8275 13.3125 3.1875 13.3125 C3.5175 11.0025 3.8475 8.6925 4.1875 6.3125 C2.8675 5.6525 1.5475 4.9925 0.1875 4.3125 Z " fill="#66717C" transform="translate(530.8125,192.6875)"/>
<path d="M0 0 C3.26810966 0.55627398 3.94936456 0.96086702 5.9375 3.5 C6.51953125 5.62109375 6.51953125 5.62109375 6.75 7.9375 C6.83894531 8.69933594 6.92789063 9.46117187 7.01953125 10.24609375 C6.92459243 12.85465077 6.33697652 14.31181507 4.9375 16.5 C2.13879973 17.89935013 0.03251208 17.75265405 -3.0625 17.5 C-5.09917615 15.95493534 -5.92323078 14.77853844 -7.0625 12.5 C-7.44419851 8.45399582 -7.42314827 6.15194111 -5.4375 2.5625 C-3.0625 0.5 -3.0625 0.5 0 0 Z M-1.0625 4.5 C-2.26811184 5.48267859 -2.26811184 5.48267859 -2.16015625 7.34765625 C-2.14855469 8.07855469 -2.13695312 8.80945313 -2.125 9.5625 C-2.104375 10.861875 -2.08375 12.16125 -2.0625 13.5 C-0.7425 13.5 0.5775 13.5 1.9375 13.5 C1.9375 10.86 1.9375 8.22 1.9375 5.5 C0.9475 5.17 -0.0425 4.84 -1.0625 4.5 Z " fill="#697580" transform="translate(517.0625,192.5)"/>
<path d="M0 0 C3.82669024 0.0479192 3.82669024 0.0479192 6.0625 1.5625 C7.125 3.25 7.125 3.25 8.125 6.25 C7.135 7.735 7.135 7.735 6.125 9.25 C6.44230524 12.88939932 6.44230524 12.88939932 7.125 16.25 C5.805 16.25 4.485 16.25 3.125 16.25 C2.465 14.6 1.805 12.95 1.125 11.25 C0.465 11.25 -0.195 11.25 -0.875 11.25 C-0.875 12.9 -0.875 14.55 -0.875 16.25 C-2.195 16.25 -3.515 16.25 -4.875 16.25 C-4.90185095 13.77076199 -4.92176547 11.2918116 -4.9375 8.8125 C-4.95006836 7.75192383 -4.95006836 7.75192383 -4.96289062 6.66992188 C-4.97153588 4.86306441 -4.92720011 3.05612397 -4.875 1.25 C-3.875 0.25 -3.875 0.25 0 0 Z M-0.875 4.25 C-0.875 4.91 -0.875 5.57 -0.875 6.25 C0.445 5.92 1.765 5.59 3.125 5.25 C1.805 4.92 0.485 4.59 -0.875 4.25 Z " fill="#6D7A86" transform="translate(460.875,192.75)"/>
<path d="M0 0 C1.37478516 0.01740234 1.37478516 0.01740234 2.77734375 0.03515625 C3.69644531 0.04417969 4.61554688 0.05320313 5.5625 0.0625 C6.27277344 0.07410156 6.98304688 0.08570313 7.71484375 0.09765625 C8.04484375 1.41765625 8.37484375 2.73765625 8.71484375 4.09765625 C6.40484375 4.42765625 4.09484375 4.75765625 1.71484375 5.09765625 C4.18984375 6.08765625 4.18984375 6.08765625 6.71484375 7.09765625 C6.38484375 8.41765625 6.05484375 9.73765625 5.71484375 11.09765625 C4.06484375 11.09765625 2.41484375 11.09765625 0.71484375 11.09765625 C0.71484375 11.75765625 0.71484375 12.41765625 0.71484375 13.09765625 C3.02484375 13.09765625 5.33484375 13.09765625 7.71484375 13.09765625 C7.71484375 14.41765625 7.71484375 15.73765625 7.71484375 17.09765625 C6.06909809 17.12453776 4.42322962 17.14399748 2.77734375 17.16015625 C1.86082031 17.17175781 0.94429688 17.18335938 0 17.1953125 C-2.28515625 17.09765625 -2.28515625 17.09765625 -3.28515625 16.09765625 C-3.38490657 13.58629521 -3.42397808 11.1086221 -3.41015625 8.59765625 C-3.41402344 7.89511719 -3.41789062 7.19257813 -3.421875 6.46875 C-3.40969189 0.14571333 -3.40969189 0.14571333 0 0 Z " fill="#65707B" transform="translate(444.28515625,192.90234375)"/>
<path d="M0 0 C1.37478516 0.01740234 1.37478516 0.01740234 2.77734375 0.03515625 C3.69644531 0.04417969 4.61554687 0.05320313 5.5625 0.0625 C6.27277344 0.07410156 6.98304688 0.08570313 7.71484375 0.09765625 C7.71484375 1.41765625 7.71484375 2.73765625 7.71484375 4.09765625 C5.40484375 4.09765625 3.09484375 4.09765625 0.71484375 4.09765625 C0.71484375 4.75765625 0.71484375 5.41765625 0.71484375 6.09765625 C2.36484375 6.09765625 4.01484375 6.09765625 5.71484375 6.09765625 C6.27734375 8.03515625 6.27734375 8.03515625 6.71484375 10.09765625 C5.71484375 11.09765625 5.71484375 11.09765625 3.15234375 11.16015625 C2.34796875 11.13953125 1.54359375 11.11890625 0.71484375 11.09765625 C0.71484375 11.75765625 0.71484375 12.41765625 0.71484375 13.09765625 C3.02484375 13.09765625 5.33484375 13.09765625 7.71484375 13.09765625 C7.71484375 14.41765625 7.71484375 15.73765625 7.71484375 17.09765625 C4.08484375 17.09765625 0.45484375 17.09765625 -3.28515625 17.09765625 C-3.31200304 14.45175611 -3.33191982 11.80612529 -3.34765625 9.16015625 C-3.35603516 8.40541016 -3.36441406 7.65066406 -3.37304688 6.87304688 C-3.38168066 4.94771312 -3.33739958 3.02230044 -3.28515625 1.09765625 C-2.28515625 0.09765625 -2.28515625 0.09765625 0 0 Z " fill="#65717C" transform="translate(545.28515625,192.90234375)"/>
<path d="M0 0 C2 2 2 2 2 6 C0.68 6 -0.64 6 -2 6 C-2 5.34 -2 4.68 -2 4 C-2.99 4 -3.98 4 -5 4 C-5.33 6.64 -5.66 9.28 -6 12 C-5.236875 11.505 -4.47375 11.01 -3.6875 10.5 C-1 9 -1 9 2 9 C1.25 13.75 1.25 13.75 -1 16 C-4.48142404 16.45409879 -6.34778115 16.39476404 -9.375 14.5625 C-11.77817914 10.77287136 -11.77561987 7.36586028 -11 3 C-8.09813083 -1.8751402 -5.15917113 -1.33756289 0 0 Z " fill="#788591" transform="translate(506,194)"/>
<path d="M0 0 C2 2 2 2 2 6 C0.68 6 -0.64 6 -2 6 C-2 5.34 -2 4.68 -2 4 C-2.99 4 -3.98 4 -5 4 C-5.33 6.64 -5.66 9.28 -6 12 C-5.236875 11.505 -4.47375 11.01 -3.6875 10.5 C-1 9 -1 9 2 9 C1.25 13.75 1.25 13.75 -1 16 C-4.48142404 16.45409879 -6.34778115 16.39476404 -9.375 14.5625 C-11.77817914 10.77287136 -11.77561987 7.36586028 -11 3 C-8.09813083 -1.8751402 -5.15917113 -1.33756289 0 0 Z " fill="#788591" transform="translate(436,194)"/>
<path d="M0 0 C0.66 0.33 1.32 0.66 2 1 C2.347823 7.37675492 1.28082524 12.07190918 -1 18 C-1.28617187 18.77472656 -1.57234375 19.54945312 -1.8671875 20.34765625 C-2.56660307 22.23607828 -3.28168064 24.11868738 -4 26 C-4.66 26 -5.32 26 -6 26 C-6.06058594 24.9378125 -6.12117188 23.875625 -6.18359375 22.78125 C-6.79270238 12.36284897 -6.79270238 12.36284897 -8 2 C-7.05125 2.04125 -6.1025 2.0825 -5.125 2.125 C-1.89755144 2.34973818 -1.89755144 2.34973818 0 0 Z " fill="#010202" transform="translate(335,101)"/>
<path d="M0 0 C0.66 0.33 1.32 0.66 2 1 C1.95359375 2.73443359 1.95359375 2.73443359 1.90625 4.50390625 C1.90625 12.3890605 2.91555929 20.23233886 3.71826172 28.06811523 C4.53186655 36.06856272 5.18885876 43.9498953 5 52 C3.515 52.495 3.515 52.495 2 53 C1.26676204 55.01508358 1.26676204 55.01508358 1 57 C0.34 57 -0.32 57 -1 57 C-1 57.66 -1 58.32 -1 59 C-1.66 59 -2.32 59 -3 59 C-3 59.66 -3 60.32 -3 61 C-3.66 60.67 -4.32 60.34 -5 60 C-4.24203125 59.21689453 -4.24203125 59.21689453 -3.46875 58.41796875 C-2.8190625 57.68191406 -2.169375 56.94585937 -1.5 56.1875 C-0.8503125 55.47980469 -0.200625 54.77210938 0.46875 54.04296875 C4.44310348 46.14495507 1.62024072 35.32708632 0.5625 26.875 C0.2928827 24.64323956 0.02334983 22.41146892 -0.24609375 20.1796875 C-0.43921143 18.60719238 -0.43921143 18.60719238 -0.63623047 17.00292969 C-1.12053466 13.00498236 -1.56410214 9.00348913 -2 5 C-1.34 5 -0.68 5 0 5 C0 3.35 0 1.7 0 0 Z " fill="#3C66CF" transform="translate(326,98)"/>
<path d="M0 0 C0.66 0 1.32 0 2 0 C3.625 2.625 3.625 2.625 5 6 C4.1875 9.375 4.1875 9.375 3 12 C1.35 12.33 -0.3 12.66 -2 13 C-2.84653029 17.5501003 -3.01830926 21.80443565 -2.9375 26.4375 C-2.88286237 31.6948546 -3.43027334 35.99649627 -5 41 C-5.33 41 -5.66 41 -6 41 C-6.33616829 10.14722154 -6.33616829 10.14722154 0 0 Z " fill="#306CE6" transform="translate(321,90)"/>
<path d="M0 0 C3.28212246 0.43761633 4.84832931 1.52557871 7 4 C7.99 2.68 8.98 1.36 10 0 C11.32 0.33 12.64 0.66 14 1 C13.72285156 1.49628906 13.44570313 1.99257812 13.16015625 2.50390625 C10.71312324 7.09318168 9.43203357 10.81559721 9 16 C7.0625 16.5625 7.0625 16.5625 5 17 C3.49888649 15.49888649 3.51981249 13.88007068 3.125 11.8125 C2.28746328 7.84054557 1.00619473 4.55643611 -1 1 C-0.67 0.67 -0.34 0.34 0 0 Z " fill="#66717C" transform="translate(400,193)"/>
<path d="M0 0 C3.63 0 7.26 0 11 0 C11.33 1.32 11.66 2.64 12 4 C10.68 4 9.36 4 8 4 C8 7.96 8 11.92 8 16 C6.68 16.33 5.36 16.66 4 17 C3 16 3 16 2.90234375 13.27734375 C2.91394531 12.17519531 2.92554688 11.07304687 2.9375 9.9375 C2.94652344 8.83277344 2.95554687 7.72804687 2.96484375 6.58984375 C2.97644531 5.73519531 2.98804688 4.88054687 3 4 C1.68 4 0.36 4 -1 4 C-0.67 2.68 -0.34 1.36 0 0 Z " fill="#616C76" transform="translate(471,193)"/>
<path d="M0 0 C1.98 0 3.96 0 6 0 C6.5625 1.9375 6.5625 1.9375 7 4 C6.67 4.33 6.34 4.66 6 5 C5.95614094 7.67540249 5.95536376 10.3267852 6 13 C6 14.32 6 15.64 6 17 C4.02 17 2.04 17 0 17 C0 11.33333333 0 5.66666667 0 0 Z " fill="#616C77" transform="translate(486,193)"/>
<path d="M0 0 C0 0.99 0 1.98 0 3 C-1.8786669 4.74278848 -3.73118573 6.31159267 -5.75 7.875 C-9.66103238 10.93458753 -13.03155063 13.9796244 -16 18 C-17.65 17.67 -19.3 17.34 -21 17 C-20.38125 16.938125 -19.7625 16.87625 -19.125 16.8125 C-18.42375 16.544375 -17.7225 16.27625 -17 16 C-16.566875 14.8553125 -16.566875 14.8553125 -16.125 13.6875 C-14.60385555 10.05365492 -12.28925984 9.0295433 -9 7 C-8.67 6.34 -8.34 5.68 -8 5 C-7.34 5 -6.68 5 -6 5 C-6 4.34 -6 3.68 -6 3 C-4.02 2.01 -2.04 1.02 0 0 Z " fill="#C4C6CE" transform="translate(349,86)"/>
<path d="M0 0 C5.84206671 -0.28975398 10.76653495 0.72631337 16.375 2.3125 C17.19355469 2.52583984 18.01210938 2.73917969 18.85546875 2.95898438 C19.63277344 3.17490234 20.41007812 3.39082031 21.2109375 3.61328125 C22.26740479 3.90392456 22.26740479 3.90392456 23.34521484 4.20043945 C23.89129395 4.46429443 24.43737305 4.72814941 25 5 C25.33 5.99 25.66 6.98 26 8 C23.69 7.67 21.38 7.34 19 7 C19 6.34 19 5.68 19 5 C18.35933594 4.93941406 17.71867187 4.87882812 17.05859375 4.81640625 C13.03482218 4.42662212 9.05708605 4.00906128 5.0625 3.375 C1.96470147 2.77332869 1.96470147 2.77332869 -1 4 C-0.67 2.68 -0.34 1.36 0 0 Z " fill="#F1F3F8" transform="translate(295,82)"/>
<path d="M0 0 C0.33 0 0.66 0 1 0 C1 2.64 1 5.28 1 8 C1.763125 7.505 2.52625 7.01 3.3125 6.5 C6 5 6 5 9 5 C8.25 9.75 8.25 9.75 6 12 C0.70422535 12.56338028 0.70422535 12.56338028 -1.875 10.5 C-2.24625 10.005 -2.6175 9.51 -3 9 C-2.34 8.01 -1.68 7.02 -1 6 C-0.60986284 4.0103005 -0.26797351 2.00980131 0 0 Z " fill="#65707A" transform="translate(499,198)"/>
<path d="M0 0 C0.33 0 0.66 0 1 0 C1 2.64 1 5.28 1 8 C1.763125 7.505 2.52625 7.01 3.3125 6.5 C6 5 6 5 9 5 C8.25 9.75 8.25 9.75 6 12 C0.70422535 12.56338028 0.70422535 12.56338028 -1.875 10.5 C-2.24625 10.005 -2.6175 9.51 -3 9 C-2.34 8.01 -1.68 7.02 -1 6 C-0.60986284 4.0103005 -0.26797351 2.00980131 0 0 Z " fill="#65707A" transform="translate(429,198)"/>
<path d="M0 0 C0.66 0.33 1.32 0.66 2 1 C1.98259766 1.8353125 1.98259766 1.8353125 1.96484375 2.6875 C1.91966044 6.50871675 1.95790406 10.21296355 2.5 14 C3.1211828 18.33953052 3.09115592 22.62451607 3 27 C2.67 27 2.34 27 2 27 C0.19889833 19.67098882 -1.3622098 12.52592433 -2 5 C-1.34 5 -0.68 5 0 5 C0 3.35 0 1.7 0 0 Z " fill="#567ED8" transform="translate(326,98)"/>
<path d="M0 0 C0.66 0 1.32 0 2 0 C1.835 0.886875 1.67 1.77375 1.5 2.6875 C0.96470651 6.29523147 0.99895261 9.79411611 1.0625 13.4375 C1.11713763 18.6948546 0.56972666 22.99649627 -1 28 C-1.33 28 -1.66 28 -2 28 C-2.20166126 18.44349683 -2.26439611 9.36085176 0 0 Z " fill="#3F70DC" transform="translate(317,103)"/>
<path d="M0 0 C0.33 1.32 0.66 2.64 1 4 C-0.546875 3.9690625 -0.546875 3.9690625 -2.125 3.9375 C-5.55152969 3.99276661 -8.64572414 4.34550715 -12 5 C-12 4.01 -12 3.02 -12 2 C-8.09971775 -0.60018816 -4.52565431 -0.15085514 0 0 Z " fill="#EBEDF3" transform="translate(349,82)"/>
<path d="M0 0 C6.75 0.75 6.75 0.75 9 3 C9 4.32 9 5.64 9 7 C7.68 7 6.36 7 5 7 C5 6.34 5 5.68 5 5 C3.68 5 2.36 5 1 5 C0.67 3.35 0.34 1.7 0 0 Z " fill="#65717B" transform="translate(499,193)"/>
<path d="M0 0 C6.75 0.75 6.75 0.75 9 3 C9 4.32 9 5.64 9 7 C7.68 7 6.36 7 5 7 C5 6.34 5 5.68 5 5 C3.68 5 2.36 5 1 5 C0.67 3.35 0.34 1.7 0 0 Z " fill="#65717B" transform="translate(429,193)"/>
<path d="M0 0 C1.65 0 3.3 0 5 0 C5.5625 1.9375 5.5625 1.9375 6 4 C5 5 5 5 2.4375 5.0625 C1.2309375 5.0315625 1.2309375 5.0315625 0 5 C0 5.66 0 6.32 0 7 C2.31 7 4.62 7 7 7 C7 7.33 7 7.66 7 8 C4.36 8 1.72 8 -1 8 C-1.08226668 4.95613276 -0.97608217 2.92824652 0 0 Z " fill="#41464E" transform="translate(445,199)"/>
<path d="M0 0 C0.66 0.33 1.32 0.66 2 1 C1.88637738 2.4800841 1.75877092 3.95910074 1.625 5.4375 C1.55539062 6.26121094 1.48578125 7.08492188 1.4140625 7.93359375 C1.27742188 8.61550781 1.14078125 9.29742187 1 10 C0.01 10.495 0.01 10.495 -1 11 C-2.49821059 7.62902617 -3 5.79557881 -3 2 C-2.01 1.34 -1.02 0.68 0 0 Z " fill="#080A0E" transform="translate(315,102)"/>
<path d="M0 0 C0.33 0 0.66 0 1 0 C0.67 2.97 0.34 5.94 0 9 C-0.66 9 -1.32 9 -2 9 C-2 9.99 -2 10.98 -2 12 C-2.99 12 -3.98 12 -5 12 C-4.42365861 7.24518354 -2.44931479 4.02951788 0 0 Z " fill="#2658D0" transform="translate(321,91)"/>
<path d="M0 0 C0.33 0.66 0.66 1.32 1 2 C0.0625 4.125 0.0625 4.125 -1 6 C-1.66 6 -2.32 6 -3 6 C-3 6.66 -3 7.32 -3 8 C-3.66 8 -4.32 8 -5 8 C-5 8.66 -5 9.32 -5 10 C-5.66 9.67 -6.32 9.34 -7 9 C-4.69 6.03 -2.38 3.06 0 0 Z " fill="#2955C8" transform="translate(328,149)"/>
<path d="M0 0 C0 0.99 0 1.98 0 3 C-3 5.1875 -3 5.1875 -6 7 C-6.66 6.34 -7.32 5.68 -8 5 C-7.34 5 -6.68 5 -6 5 C-6 4.34 -6 3.68 -6 3 C-4.02 2.01 -2.04 1.02 0 0 Z " fill="#C6C7D0" transform="translate(349,86)"/>
<path d="M0 0 C0.99 0 1.98 0 3 0 C2.3125 1.9375 2.3125 1.9375 1 4 C-1.625 4.75 -1.625 4.75 -4 5 C-4.33 4.34 -4.66 3.68 -5 3 C-3.68 3 -2.36 3 -1 3 C-0.67 2.01 -0.34 1.02 0 0 Z " fill="#BDBBBD" transform="translate(333,99)"/>
<path d="M0 0 C1.32 0.33 2.64 0.66 4 1 C2 4 2 4 -0.625 4.6875 C-1.800625 4.8421875 -1.800625 4.8421875 -3 5 C-2.01 3.35 -1.02 1.7 0 0 Z " fill="#525B64" transform="translate(410,193)"/>
<path d="M0 0 C1.98 0 3.96 0 6 0 C6.33 1.32 6.66 2.64 7 4 C4.36 3.34 1.72 2.68 -1 2 C-0.67 1.34 -0.34 0.68 0 0 Z " fill="#F7F7F8" transform="translate(343,82)"/>
</svg>
